<mxfile modified="2022-03-09T19:35:21.001Z" host="app.diagrams.net" agent="5.0 (Macintosh; Intel Mac OS X 10_15_7) AppleWebKit/537.36 (KHTML, like Gecko) Chrome/101.0.4919.0 Safari/537.36" etag="a9ab9o2l8VoFU8TyU3sX" version="17.1.0" type="github">
  <diagram id="WI9T0HZ2pTsCkuznbFz-" name="Page-1">
    <mxGraphModel dx="1851" dy="1943" grid="1" gridSize="10" guides="1" tooltips="1" connect="1" arrows="1" fold="1" page="1" pageScale="1" pageWidth="1169" pageHeight="827" math="0" shadow="0">
      <root>
        <mxCell id="0" />
        <mxCell id="1" parent="0" />
        <mxCell id="5i07NRJmOnCf9pgSvCBg-50" value="" style="ellipse;shape=cloud;whiteSpace=wrap;html=1;" vertex="1" parent="1">
          <mxGeometry x="285" y="-20" width="570" height="420" as="geometry" />
        </mxCell>
        <mxCell id="5i07NRJmOnCf9pgSvCBg-79" style="edgeStyle=none;rounded=0;orthogonalLoop=1;jettySize=auto;html=1;entryX=1;entryY=0.5;entryDx=0;entryDy=0;" edge="1" parent="1" source="5i07NRJmOnCf9pgSvCBg-48" target="5i07NRJmOnCf9pgSvCBg-12">
          <mxGeometry relative="1" as="geometry" />
        </mxCell>
        <mxCell id="5i07NRJmOnCf9pgSvCBg-82" style="edgeStyle=none;rounded=0;orthogonalLoop=1;jettySize=auto;html=1;entryX=0;entryY=0.5;entryDx=0;entryDy=0;" edge="1" parent="1" source="5i07NRJmOnCf9pgSvCBg-48" target="5i07NRJmOnCf9pgSvCBg-15">
          <mxGeometry relative="1" as="geometry" />
        </mxCell>
        <mxCell id="5i07NRJmOnCf9pgSvCBg-48" value="" style="ellipse;shape=cloud;whiteSpace=wrap;html=1;" vertex="1" parent="1">
          <mxGeometry x="240" y="480" width="660" height="590" as="geometry" />
        </mxCell>
        <mxCell id="5i07NRJmOnCf9pgSvCBg-1" value="ETH Node" style="shape=image;verticalLabelPosition=bottom;labelBackgroundColor=#ffffff;verticalAlign=top;aspect=fixed;imageAspect=0;image=data:image/svg+xml,PHN2ZyB4bWxuczpjYz0iaHR0cDovL2NyZWF0aXZlY29tbW9ucy5vcmcvbnMjIiB4bWxuczpkYz0iaHR0cDovL3B1cmwub3JnL2RjL2VsZW1lbnRzLzEuMS8iIHhtbG5zOmlua3NjYXBlPSJodHRwOi8vd3d3Lmlua3NjYXBlLm9yZy9uYW1lc3BhY2VzL2lua3NjYXBlIiB4bWxuczpyZGY9Imh0dHA6Ly93d3cudzMub3JnLzE5OTkvMDIvMjItcmRmLXN5bnRheC1ucyMiIHhtbG5zOnNvZGlwb2RpPSJodHRwOi8vc29kaXBvZGkuc291cmNlZm9yZ2UubmV0L0RURC9zb2RpcG9kaS0wLmR0ZCIgeG1sbnM6c3ZnPSJodHRwOi8vd3d3LnczLm9yZy8yMDAwL3N2ZyIgeG1sbnM9Imh0dHA6Ly93d3cudzMub3JnLzIwMDAvc3ZnIiB4bWxuczp4bGluaz0iaHR0cDovL3d3dy53My5vcmcvMTk5OS94bGluayIgdmVyc2lvbj0iMS4xIiBpZD0ic3ZnMzU4MDYiIGlua3NjYXBlOnZlcnNpb249IjAuOTIuMyAoMjQwNTU0NiwgMjAxOC0wMy0xMSkiIHNvZGlwb2RpOmRvY25hbWU9ImJpenRhbGtfYWRhcHRlci5zdmciIHg9IjBweCIgeT0iMHB4IiB2aWV3Qm94PSIwIDAgNTMuODggNzIuNDciIHN0eWxlPSJlbmFibGUtYmFja2dyb3VuZDpuZXcgMCAwIDUzLjg4IDcyLjQ3OyIgeG1sOnNwYWNlPSJwcmVzZXJ2ZSI+JiN4YTs8c29kaXBvZGk6bmFtZWR2aWV3IGJvcmRlcmNvbG9yPSIjNjY2NjY2IiBib3JkZXJvcGFjaXR5PSIxIiBmaXQtbWFyZ2luLWJvdHRvbT0iMCIgZml0LW1hcmdpbi1sZWZ0PSIwIiBmaXQtbWFyZ2luLXJpZ2h0PSIwIiBmaXQtbWFyZ2luLXRvcD0iMCIgZ3JpZHRvbGVyYW5jZT0iMTAiIGd1aWRldG9sZXJhbmNlPSIxMCIgaWQ9Im5hbWVkdmlldzM1ODA4IiBpbmtzY2FwZTpjdXJyZW50LWxheWVyPSJzdmczNTgwNiIgaW5rc2NhcGU6Y3g9Ii0xMi41ODYzNjkiIGlua3NjYXBlOmN5PSIyOS4zOTE1MDEiIGlua3NjYXBlOnBhZ2VvcGFjaXR5PSIwIiBpbmtzY2FwZTpwYWdlc2hhZG93PSIyIiBpbmtzY2FwZTp3aW5kb3ctaGVpZ2h0PSIxMDE3IiBpbmtzY2FwZTp3aW5kb3ctbWF4aW1pemVkPSIxIiBpbmtzY2FwZTp3aW5kb3ctd2lkdGg9IjE5MjAiIGlua3NjYXBlOndpbmRvdy14PSItOCIgaW5rc2NhcGU6d2luZG93LXk9Ii04IiBpbmtzY2FwZTp6b29tPSI0LjM5NTQ1MzEiIG9iamVjdHRvbGVyYW5jZT0iMTAiIHBhZ2Vjb2xvcj0iI2ZmZmZmZiIgc2hvd2dyaWQ9ImZhbHNlIj4mI3hhOwk8L3NvZGlwb2RpOm5hbWVkdmlldz4mI3hhOzxnIGlkPSJnMzU4MDQiIHRyYW5zZm9ybT0idHJhbnNsYXRlKC0xLjUwMzg0MywtMC43NTAwMDAzKSI+JiN4YTsJPHRpdGxlIGlkPSJ0aXRsZTM1NzE1Ij5QYWdlLTE8L3RpdGxlPiYjeGE7CTxnIGlkPSJncm91cDM2NzMtMSIgdHJhbnNmb3JtPSJ0cmFuc2xhdGUoMS41LC0xLjUpIj4mI3hhOwkJPHRpdGxlIGlkPSJ0aXRsZTM1NzE3Ij5CaXpUYWxrIEFkYXB0ZXI8L3RpdGxlPiYjeGE7CQk8ZyBpZD0iZ3JvdXAzNjc0LTIiPiYjeGE7CQkJPHRpdGxlIGlkPSJ0aXRsZTM1NzE5Ij5nMTU2MDg8L3RpdGxlPiYjeGE7CQkJPGcgaWQ9InNoYXBlMzY3NS0zIiB0cmFuc2Zvcm09InJvdGF0ZSgtOTAsMTAuMTg1MzUsNTkuODQwNzUpIj4mI3hhOwkJCQk8dGl0bGUgaWQ9InRpdGxlMzU3MjEiPmxpbmUxNTU5ODwvdGl0bGU+JiN4YTsJCQkJJiN4YTsJCQkJCTxwYXRoIGlkPSJwYXRoMzU3MjMiIGlua3NjYXBlOmNvbm5lY3Rvci1jdXJ2YXR1cmU9IjAiIHN0eWxlPSJmaWxsOm5vbmU7c3Ryb2tlOiM1NTZBOEE7c3Ryb2tlLXdpZHRoOjEuNTtzdHJva2UtbWl0ZXJsaW1pdDozOyIgZD0iICAgICAgTTAsNzMuOTdoMjUuNjMiLz4mI3hhOwkJCTwvZz4mI3hhOwkJCTxnIGlkPSJzaGFwZTM2NzYtNiIgdHJhbnNmb3JtPSJyb3RhdGUoOTAsMjkuNTcwMjUsNzMuOTY4NzUpIj4mI3hhOwkJCQk8dGl0bGUgaWQ9InRpdGxlMzU3MjYiPmxpbmUxNTYwMDwvdGl0bGU+JiN4YTsJCQkJJiN4YTsJCQkJCTxwYXRoIGlkPSJwYXRoMzU3MjgiIGlua3NjYXBlOmNvbm5lY3Rvci1jdXJ2YXR1cmU9IjAiIHN0eWxlPSJmaWxsOm5vbmU7c3Ryb2tlOiM1NTZBOEE7c3Ryb2tlLXdpZHRoOjEuNTtzdHJva2UtbWl0ZXJsaW1pdDozOyIgZD0iICAgICAgTTAsNzMuOTdoMjMuNjYiLz4mI3hhOwkJCTwvZz4mI3hhOwkJCTxnIGlkPSJzaGFwZTM2NzctOSIgdHJhbnNmb3JtPSJyb3RhdGUoMTgwLDI2Ljk0MTg1LDcwLjAyNikiPiYjeGE7CQkJCTx0aXRsZSBpZD0idGl0bGUzNTczMSI+bGluZTE1NjAyPC90aXRsZT4mI3hhOwkJCQkmI3hhOwkJCQkJPHBhdGggaWQ9InBhdGgzNTczMyIgaW5rc2NhcGU6Y29ubmVjdG9yLWN1cnZhdHVyZT0iMCIgc3R5bGU9ImZpbGw6bm9uZTtzdHJva2U6IzU1NkE4QTtzdHJva2Utd2lkdGg6MS41O3N0cm9rZS1taXRlcmxpbWl0OjM7IiBkPSIgICAgICBNMCw3My45N2g1My44OCIvPiYjeGE7CQkJPC9nPiYjeGE7CQkJPGcgaWQ9InNoYXBlMzY3OC0xMiIgdHJhbnNmb3JtPSJyb3RhdGUoMTgwLDI2Ljk0MTg1LDcyLjY1NDUpIj4mI3hhOwkJCQk8dGl0bGUgaWQ9InRpdGxlMzU3MzYiPmxpbmUxNTYwNDwvdGl0bGU+JiN4YTsJCQkJJiN4YTsJCQkJCTxwYXRoIGlkPSJwYXRoMzU3MzgiIGlua3NjYXBlOmNvbm5lY3Rvci1jdXJ2YXR1cmU9IjAiIHN0eWxlPSJmaWxsOm5vbmU7c3Ryb2tlOiM1NTZBOEE7c3Ryb2tlLXdpZHRoOjEuNTtzdHJva2UtbWl0ZXJsaW1pdDozOyIgZD0iICAgICAgTTAsNzMuOTdoNTMuODgiLz4mI3hhOwkJCTwvZz4mI3hhOwkJCTxnIGlkPSJzaGFwZTM2NzktMTUiIHRyYW5zZm9ybT0idHJhbnNsYXRlKDE5LjA1NjQpIj4mI3hhOwkJCQk8dGl0bGUgaWQ9InRpdGxlMzU3NDEiPnJlY3QxNTYwNjwvdGl0bGU+JiN4YTsJCQkJJiN4YTsJCQkJCTxwYXRoIGlkPSJwYXRoMzU3NDMiIGlua3NjYXBlOmNvbm5lY3Rvci1jdXJ2YXR1cmU9IjAiIHN0eWxlPSJmaWxsOiM5MjczQjY7c3Ryb2tlOiM1NTZBOEE7c3Ryb2tlLXdpZHRoOjEuNTtzdHJva2UtbWl0ZXJsaW1pdDozOyIgZD0iICAgICAgTTAsNzEuMzRjMCwxLjQ1LDEuMTgsMi42MywyLjYzLDIuNjNjMCwwLDAsMCwwLDBoMTAuNTFjMS40NSwwLDIuNjMtMS4xOCwyLjYzLTIuNjNjMCwwLDAsMCwwLDB2LTUuMjYgICAgICBjMC0xLjQ1LTEuMTgtMi42My0yLjYzLTIuNjNjMCwwLDAsMCwwLDBIMi42M0MxLjE4LDYzLjQ1LDAsNjQuNjMsMCw2Ni4wOGMwLDAsMCwwLDAsMFY3MS4zNHoiLz4mI3hhOwkJCTwvZz4mI3hhOwkJPC9nPiYjeGE7CQk8ZyBpZD0iZ3JvdXAzNjgwLTE3IiB0cmFuc2Zvcm09InRyYW5zbGF0ZSgxMS4xNzEsLTE5LjA1NjQpIj4mI3hhOwkJCTx0aXRsZSBpZD0idGl0bGUzNTc0NyI+ZzE1NjMyLjI0NjczPC90aXRsZT4mI3hhOwkJCTxnIGlkPSJzaGFwZTM2ODEtMTgiPiYjeGE7CQkJCTx0aXRsZSBpZD0idGl0bGUzNTc0OSI+cmVjdDE1NjEwPC90aXRsZT4mI3hhOwkJCQkmI3hhOwkJCQkJPHJlY3QgaWQ9InJlY3QzNTc1MSIgeD0iMCIgeT0iMjIuMDYiIHN0eWxlPSJmaWxsOiNGRkZGRkY7c3Ryb2tlOiM1NTZBOEE7c3Ryb2tlLXdpZHRoOjEuNTtzdHJva2UtbWl0ZXJsaW1pdDozOyIgd2lkdGg9IjMwLjg4IiBoZWlnaHQ9IjUxLjkxIi8+JiN4YTsJCQk8L2c+JiN4YTsJCQk8ZyBpZD0iZ3JvdXAzNjgyLTIwIiB0cmFuc2Zvcm09InRyYW5zbGF0ZSgxLjMxNDI0LC0wLjY1NzExOSkiPiYjeGE7CQkJCTx0aXRsZSBpZD0idGl0bGUzNTc1NCI+ZzE1NjIyPC90aXRsZT4mI3hhOwkJCQk8ZyBpZD0ic2hhcGUzNjgzLTIxIiB0cmFuc2Zvcm09InRyYW5zbGF0ZSgxNS4xMTM3KSI+JiN4YTsJCQkJCTx0aXRsZSBpZD0idGl0bGUzNTc1NiI+cmVjdDE1NjEyPC90aXRsZT4mI3hhOwkJCQkJPHJlY3QgaWQ9InJlY3QzNTc1OCIgeD0iMCIgeT0iMjMuMzciIHN0eWxlPSJmaWxsOiNFNUU1RTU7IiB3aWR0aD0iMTMuOCIgaGVpZ2h0PSI1MC42Ii8+JiN4YTsJCQkJPC9nPiYjeGE7CQkJCTxnIGlkPSJzaGFwZTM2ODQtMjMiIHRyYW5zZm9ybT0idHJhbnNsYXRlKDAsLTQzLjM2OTgpIj4mI3hhOwkJCQkJPHRpdGxlIGlkPSJ0aXRsZTM1NzYxIj5wb2x5Z29uMTU2MTQ8L3RpdGxlPiYjeGE7CQkJCQk8cmVjdCBpZD0icmVjdDM1NzYzIiB4PSIwIiB5PSI3MiIgc3R5bGU9ImZpbGw6bm9uZTsiIHdpZHRoPSIyMy42NiIgaGVpZ2h0PSIxLjk3Ii8+JiN4YTsJCQkJPC9nPiYjeGE7CQkJCTxnIGlkPSJzaGFwZTM2ODUtMjUiIHRyYW5zZm9ybT0idHJhbnNsYXRlKDAsLTQzLjM2OTgpIj4mI3hhOwkJCQkJPHRpdGxlIGlkPSJ0aXRsZTM1NzY2Ij5wb2x5bGluZTE1NjE2PC90aXRsZT4mI3hhOwkJCQkJPHJlY3QgaWQ9InJlY3QzNTc2OCIgeD0iMCIgeT0iNzIiIHN0eWxlPSJmaWxsOm5vbmU7IiB3aWR0aD0iMjMuNjYiIGhlaWdodD0iMS45NyIvPiYjeGE7CQkJCTwvZz4mI3hhOwkJCQk8ZyBpZD0ic2hhcGUzNjg2LTI3IiB0cmFuc2Zvcm09InRyYW5zbGF0ZSgwLC00My4zNjk4KSI+JiN4YTsJCQkJCTx0aXRsZSBpZD0idGl0bGUzNTc3MSI+cmVjdDE1NjE4PC90aXRsZT4mI3hhOwkJCQkJPHJlY3QgaWQ9InJlY3QzNTc3MyIgeD0iMCIgeT0iNzIiIHN0eWxlPSJmaWxsOiMyQkM3RjQ7IiB3aWR0aD0iMTUuNzciIGhlaWdodD0iMS45NyIvPiYjeGE7CQkJCTwvZz4mI3hhOwkJCQk8ZyBpZD0ic2hhcGUzNjg3LTI5IiB0cmFuc2Zvcm09InRyYW5zbGF0ZSgxNS4xMTM3LC00My4zNjk4KSI+JiN4YTsJCQkJCTx0aXRsZSBpZD0idGl0bGUzNTc3NiI+cmVjdDE1NjIwPC90aXRsZT4mI3hhOwkJCQkJPHJlY3QgaWQ9InJlY3QzNTc3OCIgeD0iMCIgeT0iNzIiIHN0eWxlPSJmaWxsOiM1NTZBOEE7IiB3aWR0aD0iMTMuOCIgaGVpZ2h0PSIxLjk3Ii8+JiN4YTsJCQkJPC9nPiYjeGE7CQkJPC9nPiYjeGE7CQkJPGcgaWQ9InNoYXBlMzY4OC0zMSIgdHJhbnNmb3JtPSJ0cmFuc2xhdGUoMC42NTcxMTksLTQ0LjAyNykiPiYjeGE7CQkJCTx0aXRsZSBpZD0idGl0bGUzNTc4MiI+cmVjdDE1NjI0PC90aXRsZT4mI3hhOwkJCQk8cmVjdCBpZD0icmVjdDM1Nzg0IiB4PSIwIiB5PSI3MiIgc3R5bGU9ImZpbGw6IzU1NkE4QTsiIHdpZHRoPSIxLjk3IiBoZWlnaHQ9IjEuOTciLz4mI3hhOwkJCTwvZz4mI3hhOwkJCTxnIGlkPSJzaGFwZTM2ODktMzMiIHRyYW5zZm9ybT0idHJhbnNsYXRlKDEuMzE0MjQsLTM4Ljc3KSI+JiN4YTsJCQkJPHRpdGxlIGlkPSJ0aXRsZTM1Nzg3Ij5yZWN0MTU2MjY8L3RpdGxlPiYjeGE7CQkJCTxyZWN0IGlkPSJyZWN0MzU3ODkiIHg9IjAiIHk9IjcyIiBzdHlsZT0iZmlsbDojMkJDN0Y0OyIgd2lkdGg9IjE1Ljc3IiBoZWlnaHQ9IjEuOTciLz4mI3hhOwkJCTwvZz4mI3hhOwkJCTxnIGlkPSJzaGFwZTM2OTAtMzUiIHRyYW5zZm9ybT0idHJhbnNsYXRlKDE2LjQyOCwtMzguNzcpIj4mI3hhOwkJCQk8dGl0bGUgaWQ9InRpdGxlMzU3OTIiPnJlY3QxNTYyODwvdGl0bGU+JiN4YTsJCQkJPHJlY3QgaWQ9InJlY3QzNTc5NCIgeD0iMCIgeT0iNzIiIHN0eWxlPSJmaWxsOiM1NTZBOEE7IiB3aWR0aD0iMTMuOCIgaGVpZ2h0PSIxLjk3Ii8+JiN4YTsJCQk8L2c+JiN4YTsJCQk8ZyBpZD0ic2hhcGUzNjkxLTM3IiB0cmFuc2Zvcm09InRyYW5zbGF0ZSgwLjY1NzExOSwtMzguNzcpIj4mI3hhOwkJCQk8dGl0bGUgaWQ9InRpdGxlMzU3OTciPnJlY3QxNTYzMDwvdGl0bGU+JiN4YTsJCQkJPHJlY3QgaWQ9InJlY3QzNTc5OSIgeD0iMCIgeT0iNzIiIHN0eWxlPSJmaWxsOiM1NTZBOEE7IiB3aWR0aD0iMS45NyIgaGVpZ2h0PSIxLjk3Ii8+JiN4YTsJCQk8L2c+JiN4YTsJCTwvZz4mI3hhOwk8L2c+JiN4YTs8L2c+JiN4YTs8L3N2Zz4=;imageBackground=none;" vertex="1" parent="1">
          <mxGeometry x="470" y="850" width="54" height="72" as="geometry" />
        </mxCell>
        <mxCell id="5i07NRJmOnCf9pgSvCBg-2" value="ETH Node" style="shape=image;verticalLabelPosition=bottom;labelBackgroundColor=#ffffff;verticalAlign=top;aspect=fixed;imageAspect=0;image=data:image/svg+xml,PHN2ZyB4bWxuczpjYz0iaHR0cDovL2NyZWF0aXZlY29tbW9ucy5vcmcvbnMjIiB4bWxuczpkYz0iaHR0cDovL3B1cmwub3JnL2RjL2VsZW1lbnRzLzEuMS8iIHhtbG5zOmlua3NjYXBlPSJodHRwOi8vd3d3Lmlua3NjYXBlLm9yZy9uYW1lc3BhY2VzL2lua3NjYXBlIiB4bWxuczpyZGY9Imh0dHA6Ly93d3cudzMub3JnLzE5OTkvMDIvMjItcmRmLXN5bnRheC1ucyMiIHhtbG5zOnNvZGlwb2RpPSJodHRwOi8vc29kaXBvZGkuc291cmNlZm9yZ2UubmV0L0RURC9zb2RpcG9kaS0wLmR0ZCIgeG1sbnM6c3ZnPSJodHRwOi8vd3d3LnczLm9yZy8yMDAwL3N2ZyIgeG1sbnM9Imh0dHA6Ly93d3cudzMub3JnLzIwMDAvc3ZnIiB4bWxuczp4bGluaz0iaHR0cDovL3d3dy53My5vcmcvMTk5OS94bGluayIgdmVyc2lvbj0iMS4xIiBpZD0ic3ZnMzU4MDYiIGlua3NjYXBlOnZlcnNpb249IjAuOTIuMyAoMjQwNTU0NiwgMjAxOC0wMy0xMSkiIHNvZGlwb2RpOmRvY25hbWU9ImJpenRhbGtfYWRhcHRlci5zdmciIHg9IjBweCIgeT0iMHB4IiB2aWV3Qm94PSIwIDAgNTMuODggNzIuNDciIHN0eWxlPSJlbmFibGUtYmFja2dyb3VuZDpuZXcgMCAwIDUzLjg4IDcyLjQ3OyIgeG1sOnNwYWNlPSJwcmVzZXJ2ZSI+JiN4YTs8c29kaXBvZGk6bmFtZWR2aWV3IGJvcmRlcmNvbG9yPSIjNjY2NjY2IiBib3JkZXJvcGFjaXR5PSIxIiBmaXQtbWFyZ2luLWJvdHRvbT0iMCIgZml0LW1hcmdpbi1sZWZ0PSIwIiBmaXQtbWFyZ2luLXJpZ2h0PSIwIiBmaXQtbWFyZ2luLXRvcD0iMCIgZ3JpZHRvbGVyYW5jZT0iMTAiIGd1aWRldG9sZXJhbmNlPSIxMCIgaWQ9Im5hbWVkdmlldzM1ODA4IiBpbmtzY2FwZTpjdXJyZW50LWxheWVyPSJzdmczNTgwNiIgaW5rc2NhcGU6Y3g9Ii0xMi41ODYzNjkiIGlua3NjYXBlOmN5PSIyOS4zOTE1MDEiIGlua3NjYXBlOnBhZ2VvcGFjaXR5PSIwIiBpbmtzY2FwZTpwYWdlc2hhZG93PSIyIiBpbmtzY2FwZTp3aW5kb3ctaGVpZ2h0PSIxMDE3IiBpbmtzY2FwZTp3aW5kb3ctbWF4aW1pemVkPSIxIiBpbmtzY2FwZTp3aW5kb3ctd2lkdGg9IjE5MjAiIGlua3NjYXBlOndpbmRvdy14PSItOCIgaW5rc2NhcGU6d2luZG93LXk9Ii04IiBpbmtzY2FwZTp6b29tPSI0LjM5NTQ1MzEiIG9iamVjdHRvbGVyYW5jZT0iMTAiIHBhZ2Vjb2xvcj0iI2ZmZmZmZiIgc2hvd2dyaWQ9ImZhbHNlIj4mI3hhOwk8L3NvZGlwb2RpOm5hbWVkdmlldz4mI3hhOzxnIGlkPSJnMzU4MDQiIHRyYW5zZm9ybT0idHJhbnNsYXRlKC0xLjUwMzg0MywtMC43NTAwMDAzKSI+JiN4YTsJPHRpdGxlIGlkPSJ0aXRsZTM1NzE1Ij5QYWdlLTE8L3RpdGxlPiYjeGE7CTxnIGlkPSJncm91cDM2NzMtMSIgdHJhbnNmb3JtPSJ0cmFuc2xhdGUoMS41LC0xLjUpIj4mI3hhOwkJPHRpdGxlIGlkPSJ0aXRsZTM1NzE3Ij5CaXpUYWxrIEFkYXB0ZXI8L3RpdGxlPiYjeGE7CQk8ZyBpZD0iZ3JvdXAzNjc0LTIiPiYjeGE7CQkJPHRpdGxlIGlkPSJ0aXRsZTM1NzE5Ij5nMTU2MDg8L3RpdGxlPiYjeGE7CQkJPGcgaWQ9InNoYXBlMzY3NS0zIiB0cmFuc2Zvcm09InJvdGF0ZSgtOTAsMTAuMTg1MzUsNTkuODQwNzUpIj4mI3hhOwkJCQk8dGl0bGUgaWQ9InRpdGxlMzU3MjEiPmxpbmUxNTU5ODwvdGl0bGU+JiN4YTsJCQkJJiN4YTsJCQkJCTxwYXRoIGlkPSJwYXRoMzU3MjMiIGlua3NjYXBlOmNvbm5lY3Rvci1jdXJ2YXR1cmU9IjAiIHN0eWxlPSJmaWxsOm5vbmU7c3Ryb2tlOiM1NTZBOEE7c3Ryb2tlLXdpZHRoOjEuNTtzdHJva2UtbWl0ZXJsaW1pdDozOyIgZD0iICAgICAgTTAsNzMuOTdoMjUuNjMiLz4mI3hhOwkJCTwvZz4mI3hhOwkJCTxnIGlkPSJzaGFwZTM2NzYtNiIgdHJhbnNmb3JtPSJyb3RhdGUoOTAsMjkuNTcwMjUsNzMuOTY4NzUpIj4mI3hhOwkJCQk8dGl0bGUgaWQ9InRpdGxlMzU3MjYiPmxpbmUxNTYwMDwvdGl0bGU+JiN4YTsJCQkJJiN4YTsJCQkJCTxwYXRoIGlkPSJwYXRoMzU3MjgiIGlua3NjYXBlOmNvbm5lY3Rvci1jdXJ2YXR1cmU9IjAiIHN0eWxlPSJmaWxsOm5vbmU7c3Ryb2tlOiM1NTZBOEE7c3Ryb2tlLXdpZHRoOjEuNTtzdHJva2UtbWl0ZXJsaW1pdDozOyIgZD0iICAgICAgTTAsNzMuOTdoMjMuNjYiLz4mI3hhOwkJCTwvZz4mI3hhOwkJCTxnIGlkPSJzaGFwZTM2NzctOSIgdHJhbnNmb3JtPSJyb3RhdGUoMTgwLDI2Ljk0MTg1LDcwLjAyNikiPiYjeGE7CQkJCTx0aXRsZSBpZD0idGl0bGUzNTczMSI+bGluZTE1NjAyPC90aXRsZT4mI3hhOwkJCQkmI3hhOwkJCQkJPHBhdGggaWQ9InBhdGgzNTczMyIgaW5rc2NhcGU6Y29ubmVjdG9yLWN1cnZhdHVyZT0iMCIgc3R5bGU9ImZpbGw6bm9uZTtzdHJva2U6IzU1NkE4QTtzdHJva2Utd2lkdGg6MS41O3N0cm9rZS1taXRlcmxpbWl0OjM7IiBkPSIgICAgICBNMCw3My45N2g1My44OCIvPiYjeGE7CQkJPC9nPiYjeGE7CQkJPGcgaWQ9InNoYXBlMzY3OC0xMiIgdHJhbnNmb3JtPSJyb3RhdGUoMTgwLDI2Ljk0MTg1LDcyLjY1NDUpIj4mI3hhOwkJCQk8dGl0bGUgaWQ9InRpdGxlMzU3MzYiPmxpbmUxNTYwNDwvdGl0bGU+JiN4YTsJCQkJJiN4YTsJCQkJCTxwYXRoIGlkPSJwYXRoMzU3MzgiIGlua3NjYXBlOmNvbm5lY3Rvci1jdXJ2YXR1cmU9IjAiIHN0eWxlPSJmaWxsOm5vbmU7c3Ryb2tlOiM1NTZBOEE7c3Ryb2tlLXdpZHRoOjEuNTtzdHJva2UtbWl0ZXJsaW1pdDozOyIgZD0iICAgICAgTTAsNzMuOTdoNTMuODgiLz4mI3hhOwkJCTwvZz4mI3hhOwkJCTxnIGlkPSJzaGFwZTM2NzktMTUiIHRyYW5zZm9ybT0idHJhbnNsYXRlKDE5LjA1NjQpIj4mI3hhOwkJCQk8dGl0bGUgaWQ9InRpdGxlMzU3NDEiPnJlY3QxNTYwNjwvdGl0bGU+JiN4YTsJCQkJJiN4YTsJCQkJCTxwYXRoIGlkPSJwYXRoMzU3NDMiIGlua3NjYXBlOmNvbm5lY3Rvci1jdXJ2YXR1cmU9IjAiIHN0eWxlPSJmaWxsOiM5MjczQjY7c3Ryb2tlOiM1NTZBOEE7c3Ryb2tlLXdpZHRoOjEuNTtzdHJva2UtbWl0ZXJsaW1pdDozOyIgZD0iICAgICAgTTAsNzEuMzRjMCwxLjQ1LDEuMTgsMi42MywyLjYzLDIuNjNjMCwwLDAsMCwwLDBoMTAuNTFjMS40NSwwLDIuNjMtMS4xOCwyLjYzLTIuNjNjMCwwLDAsMCwwLDB2LTUuMjYgICAgICBjMC0xLjQ1LTEuMTgtMi42My0yLjYzLTIuNjNjMCwwLDAsMCwwLDBIMi42M0MxLjE4LDYzLjQ1LDAsNjQuNjMsMCw2Ni4wOGMwLDAsMCwwLDAsMFY3MS4zNHoiLz4mI3hhOwkJCTwvZz4mI3hhOwkJPC9nPiYjeGE7CQk8ZyBpZD0iZ3JvdXAzNjgwLTE3IiB0cmFuc2Zvcm09InRyYW5zbGF0ZSgxMS4xNzEsLTE5LjA1NjQpIj4mI3hhOwkJCTx0aXRsZSBpZD0idGl0bGUzNTc0NyI+ZzE1NjMyLjI0NjczPC90aXRsZT4mI3hhOwkJCTxnIGlkPSJzaGFwZTM2ODEtMTgiPiYjeGE7CQkJCTx0aXRsZSBpZD0idGl0bGUzNTc0OSI+cmVjdDE1NjEwPC90aXRsZT4mI3hhOwkJCQkmI3hhOwkJCQkJPHJlY3QgaWQ9InJlY3QzNTc1MSIgeD0iMCIgeT0iMjIuMDYiIHN0eWxlPSJmaWxsOiNGRkZGRkY7c3Ryb2tlOiM1NTZBOEE7c3Ryb2tlLXdpZHRoOjEuNTtzdHJva2UtbWl0ZXJsaW1pdDozOyIgd2lkdGg9IjMwLjg4IiBoZWlnaHQ9IjUxLjkxIi8+JiN4YTsJCQk8L2c+JiN4YTsJCQk8ZyBpZD0iZ3JvdXAzNjgyLTIwIiB0cmFuc2Zvcm09InRyYW5zbGF0ZSgxLjMxNDI0LC0wLjY1NzExOSkiPiYjeGE7CQkJCTx0aXRsZSBpZD0idGl0bGUzNTc1NCI+ZzE1NjIyPC90aXRsZT4mI3hhOwkJCQk8ZyBpZD0ic2hhcGUzNjgzLTIxIiB0cmFuc2Zvcm09InRyYW5zbGF0ZSgxNS4xMTM3KSI+JiN4YTsJCQkJCTx0aXRsZSBpZD0idGl0bGUzNTc1NiI+cmVjdDE1NjEyPC90aXRsZT4mI3hhOwkJCQkJPHJlY3QgaWQ9InJlY3QzNTc1OCIgeD0iMCIgeT0iMjMuMzciIHN0eWxlPSJmaWxsOiNFNUU1RTU7IiB3aWR0aD0iMTMuOCIgaGVpZ2h0PSI1MC42Ii8+JiN4YTsJCQkJPC9nPiYjeGE7CQkJCTxnIGlkPSJzaGFwZTM2ODQtMjMiIHRyYW5zZm9ybT0idHJhbnNsYXRlKDAsLTQzLjM2OTgpIj4mI3hhOwkJCQkJPHRpdGxlIGlkPSJ0aXRsZTM1NzYxIj5wb2x5Z29uMTU2MTQ8L3RpdGxlPiYjeGE7CQkJCQk8cmVjdCBpZD0icmVjdDM1NzYzIiB4PSIwIiB5PSI3MiIgc3R5bGU9ImZpbGw6bm9uZTsiIHdpZHRoPSIyMy42NiIgaGVpZ2h0PSIxLjk3Ii8+JiN4YTsJCQkJPC9nPiYjeGE7CQkJCTxnIGlkPSJzaGFwZTM2ODUtMjUiIHRyYW5zZm9ybT0idHJhbnNsYXRlKDAsLTQzLjM2OTgpIj4mI3hhOwkJCQkJPHRpdGxlIGlkPSJ0aXRsZTM1NzY2Ij5wb2x5bGluZTE1NjE2PC90aXRsZT4mI3hhOwkJCQkJPHJlY3QgaWQ9InJlY3QzNTc2OCIgeD0iMCIgeT0iNzIiIHN0eWxlPSJmaWxsOm5vbmU7IiB3aWR0aD0iMjMuNjYiIGhlaWdodD0iMS45NyIvPiYjeGE7CQkJCTwvZz4mI3hhOwkJCQk8ZyBpZD0ic2hhcGUzNjg2LTI3IiB0cmFuc2Zvcm09InRyYW5zbGF0ZSgwLC00My4zNjk4KSI+JiN4YTsJCQkJCTx0aXRsZSBpZD0idGl0bGUzNTc3MSI+cmVjdDE1NjE4PC90aXRsZT4mI3hhOwkJCQkJPHJlY3QgaWQ9InJlY3QzNTc3MyIgeD0iMCIgeT0iNzIiIHN0eWxlPSJmaWxsOiMyQkM3RjQ7IiB3aWR0aD0iMTUuNzciIGhlaWdodD0iMS45NyIvPiYjeGE7CQkJCTwvZz4mI3hhOwkJCQk8ZyBpZD0ic2hhcGUzNjg3LTI5IiB0cmFuc2Zvcm09InRyYW5zbGF0ZSgxNS4xMTM3LC00My4zNjk4KSI+JiN4YTsJCQkJCTx0aXRsZSBpZD0idGl0bGUzNTc3NiI+cmVjdDE1NjIwPC90aXRsZT4mI3hhOwkJCQkJPHJlY3QgaWQ9InJlY3QzNTc3OCIgeD0iMCIgeT0iNzIiIHN0eWxlPSJmaWxsOiM1NTZBOEE7IiB3aWR0aD0iMTMuOCIgaGVpZ2h0PSIxLjk3Ii8+JiN4YTsJCQkJPC9nPiYjeGE7CQkJPC9nPiYjeGE7CQkJPGcgaWQ9InNoYXBlMzY4OC0zMSIgdHJhbnNmb3JtPSJ0cmFuc2xhdGUoMC42NTcxMTksLTQ0LjAyNykiPiYjeGE7CQkJCTx0aXRsZSBpZD0idGl0bGUzNTc4MiI+cmVjdDE1NjI0PC90aXRsZT4mI3hhOwkJCQk8cmVjdCBpZD0icmVjdDM1Nzg0IiB4PSIwIiB5PSI3MiIgc3R5bGU9ImZpbGw6IzU1NkE4QTsiIHdpZHRoPSIxLjk3IiBoZWlnaHQ9IjEuOTciLz4mI3hhOwkJCTwvZz4mI3hhOwkJCTxnIGlkPSJzaGFwZTM2ODktMzMiIHRyYW5zZm9ybT0idHJhbnNsYXRlKDEuMzE0MjQsLTM4Ljc3KSI+JiN4YTsJCQkJPHRpdGxlIGlkPSJ0aXRsZTM1Nzg3Ij5yZWN0MTU2MjY8L3RpdGxlPiYjeGE7CQkJCTxyZWN0IGlkPSJyZWN0MzU3ODkiIHg9IjAiIHk9IjcyIiBzdHlsZT0iZmlsbDojMkJDN0Y0OyIgd2lkdGg9IjE1Ljc3IiBoZWlnaHQ9IjEuOTciLz4mI3hhOwkJCTwvZz4mI3hhOwkJCTxnIGlkPSJzaGFwZTM2OTAtMzUiIHRyYW5zZm9ybT0idHJhbnNsYXRlKDE2LjQyOCwtMzguNzcpIj4mI3hhOwkJCQk8dGl0bGUgaWQ9InRpdGxlMzU3OTIiPnJlY3QxNTYyODwvdGl0bGU+JiN4YTsJCQkJPHJlY3QgaWQ9InJlY3QzNTc5NCIgeD0iMCIgeT0iNzIiIHN0eWxlPSJmaWxsOiM1NTZBOEE7IiB3aWR0aD0iMTMuOCIgaGVpZ2h0PSIxLjk3Ii8+JiN4YTsJCQk8L2c+JiN4YTsJCQk8ZyBpZD0ic2hhcGUzNjkxLTM3IiB0cmFuc2Zvcm09InRyYW5zbGF0ZSgwLjY1NzExOSwtMzguNzcpIj4mI3hhOwkJCQk8dGl0bGUgaWQ9InRpdGxlMzU3OTciPnJlY3QxNTYzMDwvdGl0bGU+JiN4YTsJCQkJPHJlY3QgaWQ9InJlY3QzNTc5OSIgeD0iMCIgeT0iNzIiIHN0eWxlPSJmaWxsOiM1NTZBOEE7IiB3aWR0aD0iMS45NyIgaGVpZ2h0PSIxLjk3Ii8+JiN4YTsJCQk8L2c+JiN4YTsJCTwvZz4mI3hhOwk8L2c+JiN4YTs8L2c+JiN4YTs8L3N2Zz4=;imageBackground=none;" vertex="1" parent="1">
          <mxGeometry x="400" y="690" width="54" height="72" as="geometry" />
        </mxCell>
        <mxCell id="5i07NRJmOnCf9pgSvCBg-5" value="ETH Node" style="shape=image;verticalLabelPosition=bottom;labelBackgroundColor=#ffffff;verticalAlign=top;aspect=fixed;imageAspect=0;image=data:image/svg+xml,PHN2ZyB4bWxuczpjYz0iaHR0cDovL2NyZWF0aXZlY29tbW9ucy5vcmcvbnMjIiB4bWxuczpkYz0iaHR0cDovL3B1cmwub3JnL2RjL2VsZW1lbnRzLzEuMS8iIHhtbG5zOmlua3NjYXBlPSJodHRwOi8vd3d3Lmlua3NjYXBlLm9yZy9uYW1lc3BhY2VzL2lua3NjYXBlIiB4bWxuczpyZGY9Imh0dHA6Ly93d3cudzMub3JnLzE5OTkvMDIvMjItcmRmLXN5bnRheC1ucyMiIHhtbG5zOnNvZGlwb2RpPSJodHRwOi8vc29kaXBvZGkuc291cmNlZm9yZ2UubmV0L0RURC9zb2RpcG9kaS0wLmR0ZCIgeG1sbnM6c3ZnPSJodHRwOi8vd3d3LnczLm9yZy8yMDAwL3N2ZyIgeG1sbnM9Imh0dHA6Ly93d3cudzMub3JnLzIwMDAvc3ZnIiB4bWxuczp4bGluaz0iaHR0cDovL3d3dy53My5vcmcvMTk5OS94bGluayIgdmVyc2lvbj0iMS4xIiBpZD0ic3ZnMzU4MDYiIGlua3NjYXBlOnZlcnNpb249IjAuOTIuMyAoMjQwNTU0NiwgMjAxOC0wMy0xMSkiIHNvZGlwb2RpOmRvY25hbWU9ImJpenRhbGtfYWRhcHRlci5zdmciIHg9IjBweCIgeT0iMHB4IiB2aWV3Qm94PSIwIDAgNTMuODggNzIuNDciIHN0eWxlPSJlbmFibGUtYmFja2dyb3VuZDpuZXcgMCAwIDUzLjg4IDcyLjQ3OyIgeG1sOnNwYWNlPSJwcmVzZXJ2ZSI+JiN4YTs8c29kaXBvZGk6bmFtZWR2aWV3IGJvcmRlcmNvbG9yPSIjNjY2NjY2IiBib3JkZXJvcGFjaXR5PSIxIiBmaXQtbWFyZ2luLWJvdHRvbT0iMCIgZml0LW1hcmdpbi1sZWZ0PSIwIiBmaXQtbWFyZ2luLXJpZ2h0PSIwIiBmaXQtbWFyZ2luLXRvcD0iMCIgZ3JpZHRvbGVyYW5jZT0iMTAiIGd1aWRldG9sZXJhbmNlPSIxMCIgaWQ9Im5hbWVkdmlldzM1ODA4IiBpbmtzY2FwZTpjdXJyZW50LWxheWVyPSJzdmczNTgwNiIgaW5rc2NhcGU6Y3g9Ii0xMi41ODYzNjkiIGlua3NjYXBlOmN5PSIyOS4zOTE1MDEiIGlua3NjYXBlOnBhZ2VvcGFjaXR5PSIwIiBpbmtzY2FwZTpwYWdlc2hhZG93PSIyIiBpbmtzY2FwZTp3aW5kb3ctaGVpZ2h0PSIxMDE3IiBpbmtzY2FwZTp3aW5kb3ctbWF4aW1pemVkPSIxIiBpbmtzY2FwZTp3aW5kb3ctd2lkdGg9IjE5MjAiIGlua3NjYXBlOndpbmRvdy14PSItOCIgaW5rc2NhcGU6d2luZG93LXk9Ii04IiBpbmtzY2FwZTp6b29tPSI0LjM5NTQ1MzEiIG9iamVjdHRvbGVyYW5jZT0iMTAiIHBhZ2Vjb2xvcj0iI2ZmZmZmZiIgc2hvd2dyaWQ9ImZhbHNlIj4mI3hhOwk8L3NvZGlwb2RpOm5hbWVkdmlldz4mI3hhOzxnIGlkPSJnMzU4MDQiIHRyYW5zZm9ybT0idHJhbnNsYXRlKC0xLjUwMzg0MywtMC43NTAwMDAzKSI+JiN4YTsJPHRpdGxlIGlkPSJ0aXRsZTM1NzE1Ij5QYWdlLTE8L3RpdGxlPiYjeGE7CTxnIGlkPSJncm91cDM2NzMtMSIgdHJhbnNmb3JtPSJ0cmFuc2xhdGUoMS41LC0xLjUpIj4mI3hhOwkJPHRpdGxlIGlkPSJ0aXRsZTM1NzE3Ij5CaXpUYWxrIEFkYXB0ZXI8L3RpdGxlPiYjeGE7CQk8ZyBpZD0iZ3JvdXAzNjc0LTIiPiYjeGE7CQkJPHRpdGxlIGlkPSJ0aXRsZTM1NzE5Ij5nMTU2MDg8L3RpdGxlPiYjeGE7CQkJPGcgaWQ9InNoYXBlMzY3NS0zIiB0cmFuc2Zvcm09InJvdGF0ZSgtOTAsMTAuMTg1MzUsNTkuODQwNzUpIj4mI3hhOwkJCQk8dGl0bGUgaWQ9InRpdGxlMzU3MjEiPmxpbmUxNTU5ODwvdGl0bGU+JiN4YTsJCQkJJiN4YTsJCQkJCTxwYXRoIGlkPSJwYXRoMzU3MjMiIGlua3NjYXBlOmNvbm5lY3Rvci1jdXJ2YXR1cmU9IjAiIHN0eWxlPSJmaWxsOm5vbmU7c3Ryb2tlOiM1NTZBOEE7c3Ryb2tlLXdpZHRoOjEuNTtzdHJva2UtbWl0ZXJsaW1pdDozOyIgZD0iICAgICAgTTAsNzMuOTdoMjUuNjMiLz4mI3hhOwkJCTwvZz4mI3hhOwkJCTxnIGlkPSJzaGFwZTM2NzYtNiIgdHJhbnNmb3JtPSJyb3RhdGUoOTAsMjkuNTcwMjUsNzMuOTY4NzUpIj4mI3hhOwkJCQk8dGl0bGUgaWQ9InRpdGxlMzU3MjYiPmxpbmUxNTYwMDwvdGl0bGU+JiN4YTsJCQkJJiN4YTsJCQkJCTxwYXRoIGlkPSJwYXRoMzU3MjgiIGlua3NjYXBlOmNvbm5lY3Rvci1jdXJ2YXR1cmU9IjAiIHN0eWxlPSJmaWxsOm5vbmU7c3Ryb2tlOiM1NTZBOEE7c3Ryb2tlLXdpZHRoOjEuNTtzdHJva2UtbWl0ZXJsaW1pdDozOyIgZD0iICAgICAgTTAsNzMuOTdoMjMuNjYiLz4mI3hhOwkJCTwvZz4mI3hhOwkJCTxnIGlkPSJzaGFwZTM2NzctOSIgdHJhbnNmb3JtPSJyb3RhdGUoMTgwLDI2Ljk0MTg1LDcwLjAyNikiPiYjeGE7CQkJCTx0aXRsZSBpZD0idGl0bGUzNTczMSI+bGluZTE1NjAyPC90aXRsZT4mI3hhOwkJCQkmI3hhOwkJCQkJPHBhdGggaWQ9InBhdGgzNTczMyIgaW5rc2NhcGU6Y29ubmVjdG9yLWN1cnZhdHVyZT0iMCIgc3R5bGU9ImZpbGw6bm9uZTtzdHJva2U6IzU1NkE4QTtzdHJva2Utd2lkdGg6MS41O3N0cm9rZS1taXRlcmxpbWl0OjM7IiBkPSIgICAgICBNMCw3My45N2g1My44OCIvPiYjeGE7CQkJPC9nPiYjeGE7CQkJPGcgaWQ9InNoYXBlMzY3OC0xMiIgdHJhbnNmb3JtPSJyb3RhdGUoMTgwLDI2Ljk0MTg1LDcyLjY1NDUpIj4mI3hhOwkJCQk8dGl0bGUgaWQ9InRpdGxlMzU3MzYiPmxpbmUxNTYwNDwvdGl0bGU+JiN4YTsJCQkJJiN4YTsJCQkJCTxwYXRoIGlkPSJwYXRoMzU3MzgiIGlua3NjYXBlOmNvbm5lY3Rvci1jdXJ2YXR1cmU9IjAiIHN0eWxlPSJmaWxsOm5vbmU7c3Ryb2tlOiM1NTZBOEE7c3Ryb2tlLXdpZHRoOjEuNTtzdHJva2UtbWl0ZXJsaW1pdDozOyIgZD0iICAgICAgTTAsNzMuOTdoNTMuODgiLz4mI3hhOwkJCTwvZz4mI3hhOwkJCTxnIGlkPSJzaGFwZTM2NzktMTUiIHRyYW5zZm9ybT0idHJhbnNsYXRlKDE5LjA1NjQpIj4mI3hhOwkJCQk8dGl0bGUgaWQ9InRpdGxlMzU3NDEiPnJlY3QxNTYwNjwvdGl0bGU+JiN4YTsJCQkJJiN4YTsJCQkJCTxwYXRoIGlkPSJwYXRoMzU3NDMiIGlua3NjYXBlOmNvbm5lY3Rvci1jdXJ2YXR1cmU9IjAiIHN0eWxlPSJmaWxsOiM5MjczQjY7c3Ryb2tlOiM1NTZBOEE7c3Ryb2tlLXdpZHRoOjEuNTtzdHJva2UtbWl0ZXJsaW1pdDozOyIgZD0iICAgICAgTTAsNzEuMzRjMCwxLjQ1LDEuMTgsMi42MywyLjYzLDIuNjNjMCwwLDAsMCwwLDBoMTAuNTFjMS40NSwwLDIuNjMtMS4xOCwyLjYzLTIuNjNjMCwwLDAsMCwwLDB2LTUuMjYgICAgICBjMC0xLjQ1LTEuMTgtMi42My0yLjYzLTIuNjNjMCwwLDAsMCwwLDBIMi42M0MxLjE4LDYzLjQ1LDAsNjQuNjMsMCw2Ni4wOGMwLDAsMCwwLDAsMFY3MS4zNHoiLz4mI3hhOwkJCTwvZz4mI3hhOwkJPC9nPiYjeGE7CQk8ZyBpZD0iZ3JvdXAzNjgwLTE3IiB0cmFuc2Zvcm09InRyYW5zbGF0ZSgxMS4xNzEsLTE5LjA1NjQpIj4mI3hhOwkJCTx0aXRsZSBpZD0idGl0bGUzNTc0NyI+ZzE1NjMyLjI0NjczPC90aXRsZT4mI3hhOwkJCTxnIGlkPSJzaGFwZTM2ODEtMTgiPiYjeGE7CQkJCTx0aXRsZSBpZD0idGl0bGUzNTc0OSI+cmVjdDE1NjEwPC90aXRsZT4mI3hhOwkJCQkmI3hhOwkJCQkJPHJlY3QgaWQ9InJlY3QzNTc1MSIgeD0iMCIgeT0iMjIuMDYiIHN0eWxlPSJmaWxsOiNGRkZGRkY7c3Ryb2tlOiM1NTZBOEE7c3Ryb2tlLXdpZHRoOjEuNTtzdHJva2UtbWl0ZXJsaW1pdDozOyIgd2lkdGg9IjMwLjg4IiBoZWlnaHQ9IjUxLjkxIi8+JiN4YTsJCQk8L2c+JiN4YTsJCQk8ZyBpZD0iZ3JvdXAzNjgyLTIwIiB0cmFuc2Zvcm09InRyYW5zbGF0ZSgxLjMxNDI0LC0wLjY1NzExOSkiPiYjeGE7CQkJCTx0aXRsZSBpZD0idGl0bGUzNTc1NCI+ZzE1NjIyPC90aXRsZT4mI3hhOwkJCQk8ZyBpZD0ic2hhcGUzNjgzLTIxIiB0cmFuc2Zvcm09InRyYW5zbGF0ZSgxNS4xMTM3KSI+JiN4YTsJCQkJCTx0aXRsZSBpZD0idGl0bGUzNTc1NiI+cmVjdDE1NjEyPC90aXRsZT4mI3hhOwkJCQkJPHJlY3QgaWQ9InJlY3QzNTc1OCIgeD0iMCIgeT0iMjMuMzciIHN0eWxlPSJmaWxsOiNFNUU1RTU7IiB3aWR0aD0iMTMuOCIgaGVpZ2h0PSI1MC42Ii8+JiN4YTsJCQkJPC9nPiYjeGE7CQkJCTxnIGlkPSJzaGFwZTM2ODQtMjMiIHRyYW5zZm9ybT0idHJhbnNsYXRlKDAsLTQzLjM2OTgpIj4mI3hhOwkJCQkJPHRpdGxlIGlkPSJ0aXRsZTM1NzYxIj5wb2x5Z29uMTU2MTQ8L3RpdGxlPiYjeGE7CQkJCQk8cmVjdCBpZD0icmVjdDM1NzYzIiB4PSIwIiB5PSI3MiIgc3R5bGU9ImZpbGw6bm9uZTsiIHdpZHRoPSIyMy42NiIgaGVpZ2h0PSIxLjk3Ii8+JiN4YTsJCQkJPC9nPiYjeGE7CQkJCTxnIGlkPSJzaGFwZTM2ODUtMjUiIHRyYW5zZm9ybT0idHJhbnNsYXRlKDAsLTQzLjM2OTgpIj4mI3hhOwkJCQkJPHRpdGxlIGlkPSJ0aXRsZTM1NzY2Ij5wb2x5bGluZTE1NjE2PC90aXRsZT4mI3hhOwkJCQkJPHJlY3QgaWQ9InJlY3QzNTc2OCIgeD0iMCIgeT0iNzIiIHN0eWxlPSJmaWxsOm5vbmU7IiB3aWR0aD0iMjMuNjYiIGhlaWdodD0iMS45NyIvPiYjeGE7CQkJCTwvZz4mI3hhOwkJCQk8ZyBpZD0ic2hhcGUzNjg2LTI3IiB0cmFuc2Zvcm09InRyYW5zbGF0ZSgwLC00My4zNjk4KSI+JiN4YTsJCQkJCTx0aXRsZSBpZD0idGl0bGUzNTc3MSI+cmVjdDE1NjE4PC90aXRsZT4mI3hhOwkJCQkJPHJlY3QgaWQ9InJlY3QzNTc3MyIgeD0iMCIgeT0iNzIiIHN0eWxlPSJmaWxsOiMyQkM3RjQ7IiB3aWR0aD0iMTUuNzciIGhlaWdodD0iMS45NyIvPiYjeGE7CQkJCTwvZz4mI3hhOwkJCQk8ZyBpZD0ic2hhcGUzNjg3LTI5IiB0cmFuc2Zvcm09InRyYW5zbGF0ZSgxNS4xMTM3LC00My4zNjk4KSI+JiN4YTsJCQkJCTx0aXRsZSBpZD0idGl0bGUzNTc3NiI+cmVjdDE1NjIwPC90aXRsZT4mI3hhOwkJCQkJPHJlY3QgaWQ9InJlY3QzNTc3OCIgeD0iMCIgeT0iNzIiIHN0eWxlPSJmaWxsOiM1NTZBOEE7IiB3aWR0aD0iMTMuOCIgaGVpZ2h0PSIxLjk3Ii8+JiN4YTsJCQkJPC9nPiYjeGE7CQkJPC9nPiYjeGE7CQkJPGcgaWQ9InNoYXBlMzY4OC0zMSIgdHJhbnNmb3JtPSJ0cmFuc2xhdGUoMC42NTcxMTksLTQ0LjAyNykiPiYjeGE7CQkJCTx0aXRsZSBpZD0idGl0bGUzNTc4MiI+cmVjdDE1NjI0PC90aXRsZT4mI3hhOwkJCQk8cmVjdCBpZD0icmVjdDM1Nzg0IiB4PSIwIiB5PSI3MiIgc3R5bGU9ImZpbGw6IzU1NkE4QTsiIHdpZHRoPSIxLjk3IiBoZWlnaHQ9IjEuOTciLz4mI3hhOwkJCTwvZz4mI3hhOwkJCTxnIGlkPSJzaGFwZTM2ODktMzMiIHRyYW5zZm9ybT0idHJhbnNsYXRlKDEuMzE0MjQsLTM4Ljc3KSI+JiN4YTsJCQkJPHRpdGxlIGlkPSJ0aXRsZTM1Nzg3Ij5yZWN0MTU2MjY8L3RpdGxlPiYjeGE7CQkJCTxyZWN0IGlkPSJyZWN0MzU3ODkiIHg9IjAiIHk9IjcyIiBzdHlsZT0iZmlsbDojMkJDN0Y0OyIgd2lkdGg9IjE1Ljc3IiBoZWlnaHQ9IjEuOTciLz4mI3hhOwkJCTwvZz4mI3hhOwkJCTxnIGlkPSJzaGFwZTM2OTAtMzUiIHRyYW5zZm9ybT0idHJhbnNsYXRlKDE2LjQyOCwtMzguNzcpIj4mI3hhOwkJCQk8dGl0bGUgaWQ9InRpdGxlMzU3OTIiPnJlY3QxNTYyODwvdGl0bGU+JiN4YTsJCQkJPHJlY3QgaWQ9InJlY3QzNTc5NCIgeD0iMCIgeT0iNzIiIHN0eWxlPSJmaWxsOiM1NTZBOEE7IiB3aWR0aD0iMTMuOCIgaGVpZ2h0PSIxLjk3Ii8+JiN4YTsJCQk8L2c+JiN4YTsJCQk8ZyBpZD0ic2hhcGUzNjkxLTM3IiB0cmFuc2Zvcm09InRyYW5zbGF0ZSgwLjY1NzExOSwtMzguNzcpIj4mI3hhOwkJCQk8dGl0bGUgaWQ9InRpdGxlMzU3OTciPnJlY3QxNTYzMDwvdGl0bGU+JiN4YTsJCQkJPHJlY3QgaWQ9InJlY3QzNTc5OSIgeD0iMCIgeT0iNzIiIHN0eWxlPSJmaWxsOiM1NTZBOEE7IiB3aWR0aD0iMS45NyIgaGVpZ2h0PSIxLjk3Ii8+JiN4YTsJCQk8L2c+JiN4YTsJCTwvZz4mI3hhOwk8L2c+JiN4YTs8L2c+JiN4YTs8L3N2Zz4=;imageBackground=none;" vertex="1" parent="1">
          <mxGeometry x="560" y="570.5" width="54" height="72" as="geometry" />
        </mxCell>
        <mxCell id="5i07NRJmOnCf9pgSvCBg-10" value="ETH Node" style="shape=image;verticalLabelPosition=bottom;labelBackgroundColor=#ffffff;verticalAlign=top;aspect=fixed;imageAspect=0;image=data:image/svg+xml,PHN2ZyB4bWxuczpjYz0iaHR0cDovL2NyZWF0aXZlY29tbW9ucy5vcmcvbnMjIiB4bWxuczpkYz0iaHR0cDovL3B1cmwub3JnL2RjL2VsZW1lbnRzLzEuMS8iIHhtbG5zOmlua3NjYXBlPSJodHRwOi8vd3d3Lmlua3NjYXBlLm9yZy9uYW1lc3BhY2VzL2lua3NjYXBlIiB4bWxuczpyZGY9Imh0dHA6Ly93d3cudzMub3JnLzE5OTkvMDIvMjItcmRmLXN5bnRheC1ucyMiIHhtbG5zOnNvZGlwb2RpPSJodHRwOi8vc29kaXBvZGkuc291cmNlZm9yZ2UubmV0L0RURC9zb2RpcG9kaS0wLmR0ZCIgeG1sbnM6c3ZnPSJodHRwOi8vd3d3LnczLm9yZy8yMDAwL3N2ZyIgeG1sbnM9Imh0dHA6Ly93d3cudzMub3JnLzIwMDAvc3ZnIiB4bWxuczp4bGluaz0iaHR0cDovL3d3dy53My5vcmcvMTk5OS94bGluayIgdmVyc2lvbj0iMS4xIiBpZD0ic3ZnMzU4MDYiIGlua3NjYXBlOnZlcnNpb249IjAuOTIuMyAoMjQwNTU0NiwgMjAxOC0wMy0xMSkiIHNvZGlwb2RpOmRvY25hbWU9ImJpenRhbGtfYWRhcHRlci5zdmciIHg9IjBweCIgeT0iMHB4IiB2aWV3Qm94PSIwIDAgNTMuODggNzIuNDciIHN0eWxlPSJlbmFibGUtYmFja2dyb3VuZDpuZXcgMCAwIDUzLjg4IDcyLjQ3OyIgeG1sOnNwYWNlPSJwcmVzZXJ2ZSI+JiN4YTs8c29kaXBvZGk6bmFtZWR2aWV3IGJvcmRlcmNvbG9yPSIjNjY2NjY2IiBib3JkZXJvcGFjaXR5PSIxIiBmaXQtbWFyZ2luLWJvdHRvbT0iMCIgZml0LW1hcmdpbi1sZWZ0PSIwIiBmaXQtbWFyZ2luLXJpZ2h0PSIwIiBmaXQtbWFyZ2luLXRvcD0iMCIgZ3JpZHRvbGVyYW5jZT0iMTAiIGd1aWRldG9sZXJhbmNlPSIxMCIgaWQ9Im5hbWVkdmlldzM1ODA4IiBpbmtzY2FwZTpjdXJyZW50LWxheWVyPSJzdmczNTgwNiIgaW5rc2NhcGU6Y3g9Ii0xMi41ODYzNjkiIGlua3NjYXBlOmN5PSIyOS4zOTE1MDEiIGlua3NjYXBlOnBhZ2VvcGFjaXR5PSIwIiBpbmtzY2FwZTpwYWdlc2hhZG93PSIyIiBpbmtzY2FwZTp3aW5kb3ctaGVpZ2h0PSIxMDE3IiBpbmtzY2FwZTp3aW5kb3ctbWF4aW1pemVkPSIxIiBpbmtzY2FwZTp3aW5kb3ctd2lkdGg9IjE5MjAiIGlua3NjYXBlOndpbmRvdy14PSItOCIgaW5rc2NhcGU6d2luZG93LXk9Ii04IiBpbmtzY2FwZTp6b29tPSI0LjM5NTQ1MzEiIG9iamVjdHRvbGVyYW5jZT0iMTAiIHBhZ2Vjb2xvcj0iI2ZmZmZmZiIgc2hvd2dyaWQ9ImZhbHNlIj4mI3hhOwk8L3NvZGlwb2RpOm5hbWVkdmlldz4mI3hhOzxnIGlkPSJnMzU4MDQiIHRyYW5zZm9ybT0idHJhbnNsYXRlKC0xLjUwMzg0MywtMC43NTAwMDAzKSI+JiN4YTsJPHRpdGxlIGlkPSJ0aXRsZTM1NzE1Ij5QYWdlLTE8L3RpdGxlPiYjeGE7CTxnIGlkPSJncm91cDM2NzMtMSIgdHJhbnNmb3JtPSJ0cmFuc2xhdGUoMS41LC0xLjUpIj4mI3hhOwkJPHRpdGxlIGlkPSJ0aXRsZTM1NzE3Ij5CaXpUYWxrIEFkYXB0ZXI8L3RpdGxlPiYjeGE7CQk8ZyBpZD0iZ3JvdXAzNjc0LTIiPiYjeGE7CQkJPHRpdGxlIGlkPSJ0aXRsZTM1NzE5Ij5nMTU2MDg8L3RpdGxlPiYjeGE7CQkJPGcgaWQ9InNoYXBlMzY3NS0zIiB0cmFuc2Zvcm09InJvdGF0ZSgtOTAsMTAuMTg1MzUsNTkuODQwNzUpIj4mI3hhOwkJCQk8dGl0bGUgaWQ9InRpdGxlMzU3MjEiPmxpbmUxNTU5ODwvdGl0bGU+JiN4YTsJCQkJJiN4YTsJCQkJCTxwYXRoIGlkPSJwYXRoMzU3MjMiIGlua3NjYXBlOmNvbm5lY3Rvci1jdXJ2YXR1cmU9IjAiIHN0eWxlPSJmaWxsOm5vbmU7c3Ryb2tlOiM1NTZBOEE7c3Ryb2tlLXdpZHRoOjEuNTtzdHJva2UtbWl0ZXJsaW1pdDozOyIgZD0iICAgICAgTTAsNzMuOTdoMjUuNjMiLz4mI3hhOwkJCTwvZz4mI3hhOwkJCTxnIGlkPSJzaGFwZTM2NzYtNiIgdHJhbnNmb3JtPSJyb3RhdGUoOTAsMjkuNTcwMjUsNzMuOTY4NzUpIj4mI3hhOwkJCQk8dGl0bGUgaWQ9InRpdGxlMzU3MjYiPmxpbmUxNTYwMDwvdGl0bGU+JiN4YTsJCQkJJiN4YTsJCQkJCTxwYXRoIGlkPSJwYXRoMzU3MjgiIGlua3NjYXBlOmNvbm5lY3Rvci1jdXJ2YXR1cmU9IjAiIHN0eWxlPSJmaWxsOm5vbmU7c3Ryb2tlOiM1NTZBOEE7c3Ryb2tlLXdpZHRoOjEuNTtzdHJva2UtbWl0ZXJsaW1pdDozOyIgZD0iICAgICAgTTAsNzMuOTdoMjMuNjYiLz4mI3hhOwkJCTwvZz4mI3hhOwkJCTxnIGlkPSJzaGFwZTM2NzctOSIgdHJhbnNmb3JtPSJyb3RhdGUoMTgwLDI2Ljk0MTg1LDcwLjAyNikiPiYjeGE7CQkJCTx0aXRsZSBpZD0idGl0bGUzNTczMSI+bGluZTE1NjAyPC90aXRsZT4mI3hhOwkJCQkmI3hhOwkJCQkJPHBhdGggaWQ9InBhdGgzNTczMyIgaW5rc2NhcGU6Y29ubmVjdG9yLWN1cnZhdHVyZT0iMCIgc3R5bGU9ImZpbGw6bm9uZTtzdHJva2U6IzU1NkE4QTtzdHJva2Utd2lkdGg6MS41O3N0cm9rZS1taXRlcmxpbWl0OjM7IiBkPSIgICAgICBNMCw3My45N2g1My44OCIvPiYjeGE7CQkJPC9nPiYjeGE7CQkJPGcgaWQ9InNoYXBlMzY3OC0xMiIgdHJhbnNmb3JtPSJyb3RhdGUoMTgwLDI2Ljk0MTg1LDcyLjY1NDUpIj4mI3hhOwkJCQk8dGl0bGUgaWQ9InRpdGxlMzU3MzYiPmxpbmUxNTYwNDwvdGl0bGU+JiN4YTsJCQkJJiN4YTsJCQkJCTxwYXRoIGlkPSJwYXRoMzU3MzgiIGlua3NjYXBlOmNvbm5lY3Rvci1jdXJ2YXR1cmU9IjAiIHN0eWxlPSJmaWxsOm5vbmU7c3Ryb2tlOiM1NTZBOEE7c3Ryb2tlLXdpZHRoOjEuNTtzdHJva2UtbWl0ZXJsaW1pdDozOyIgZD0iICAgICAgTTAsNzMuOTdoNTMuODgiLz4mI3hhOwkJCTwvZz4mI3hhOwkJCTxnIGlkPSJzaGFwZTM2NzktMTUiIHRyYW5zZm9ybT0idHJhbnNsYXRlKDE5LjA1NjQpIj4mI3hhOwkJCQk8dGl0bGUgaWQ9InRpdGxlMzU3NDEiPnJlY3QxNTYwNjwvdGl0bGU+JiN4YTsJCQkJJiN4YTsJCQkJCTxwYXRoIGlkPSJwYXRoMzU3NDMiIGlua3NjYXBlOmNvbm5lY3Rvci1jdXJ2YXR1cmU9IjAiIHN0eWxlPSJmaWxsOiM5MjczQjY7c3Ryb2tlOiM1NTZBOEE7c3Ryb2tlLXdpZHRoOjEuNTtzdHJva2UtbWl0ZXJsaW1pdDozOyIgZD0iICAgICAgTTAsNzEuMzRjMCwxLjQ1LDEuMTgsMi42MywyLjYzLDIuNjNjMCwwLDAsMCwwLDBoMTAuNTFjMS40NSwwLDIuNjMtMS4xOCwyLjYzLTIuNjNjMCwwLDAsMCwwLDB2LTUuMjYgICAgICBjMC0xLjQ1LTEuMTgtMi42My0yLjYzLTIuNjNjMCwwLDAsMCwwLDBIMi42M0MxLjE4LDYzLjQ1LDAsNjQuNjMsMCw2Ni4wOGMwLDAsMCwwLDAsMFY3MS4zNHoiLz4mI3hhOwkJCTwvZz4mI3hhOwkJPC9nPiYjeGE7CQk8ZyBpZD0iZ3JvdXAzNjgwLTE3IiB0cmFuc2Zvcm09InRyYW5zbGF0ZSgxMS4xNzEsLTE5LjA1NjQpIj4mI3hhOwkJCTx0aXRsZSBpZD0idGl0bGUzNTc0NyI+ZzE1NjMyLjI0NjczPC90aXRsZT4mI3hhOwkJCTxnIGlkPSJzaGFwZTM2ODEtMTgiPiYjeGE7CQkJCTx0aXRsZSBpZD0idGl0bGUzNTc0OSI+cmVjdDE1NjEwPC90aXRsZT4mI3hhOwkJCQkmI3hhOwkJCQkJPHJlY3QgaWQ9InJlY3QzNTc1MSIgeD0iMCIgeT0iMjIuMDYiIHN0eWxlPSJmaWxsOiNGRkZGRkY7c3Ryb2tlOiM1NTZBOEE7c3Ryb2tlLXdpZHRoOjEuNTtzdHJva2UtbWl0ZXJsaW1pdDozOyIgd2lkdGg9IjMwLjg4IiBoZWlnaHQ9IjUxLjkxIi8+JiN4YTsJCQk8L2c+JiN4YTsJCQk8ZyBpZD0iZ3JvdXAzNjgyLTIwIiB0cmFuc2Zvcm09InRyYW5zbGF0ZSgxLjMxNDI0LC0wLjY1NzExOSkiPiYjeGE7CQkJCTx0aXRsZSBpZD0idGl0bGUzNTc1NCI+ZzE1NjIyPC90aXRsZT4mI3hhOwkJCQk8ZyBpZD0ic2hhcGUzNjgzLTIxIiB0cmFuc2Zvcm09InRyYW5zbGF0ZSgxNS4xMTM3KSI+JiN4YTsJCQkJCTx0aXRsZSBpZD0idGl0bGUzNTc1NiI+cmVjdDE1NjEyPC90aXRsZT4mI3hhOwkJCQkJPHJlY3QgaWQ9InJlY3QzNTc1OCIgeD0iMCIgeT0iMjMuMzciIHN0eWxlPSJmaWxsOiNFNUU1RTU7IiB3aWR0aD0iMTMuOCIgaGVpZ2h0PSI1MC42Ii8+JiN4YTsJCQkJPC9nPiYjeGE7CQkJCTxnIGlkPSJzaGFwZTM2ODQtMjMiIHRyYW5zZm9ybT0idHJhbnNsYXRlKDAsLTQzLjM2OTgpIj4mI3hhOwkJCQkJPHRpdGxlIGlkPSJ0aXRsZTM1NzYxIj5wb2x5Z29uMTU2MTQ8L3RpdGxlPiYjeGE7CQkJCQk8cmVjdCBpZD0icmVjdDM1NzYzIiB4PSIwIiB5PSI3MiIgc3R5bGU9ImZpbGw6bm9uZTsiIHdpZHRoPSIyMy42NiIgaGVpZ2h0PSIxLjk3Ii8+JiN4YTsJCQkJPC9nPiYjeGE7CQkJCTxnIGlkPSJzaGFwZTM2ODUtMjUiIHRyYW5zZm9ybT0idHJhbnNsYXRlKDAsLTQzLjM2OTgpIj4mI3hhOwkJCQkJPHRpdGxlIGlkPSJ0aXRsZTM1NzY2Ij5wb2x5bGluZTE1NjE2PC90aXRsZT4mI3hhOwkJCQkJPHJlY3QgaWQ9InJlY3QzNTc2OCIgeD0iMCIgeT0iNzIiIHN0eWxlPSJmaWxsOm5vbmU7IiB3aWR0aD0iMjMuNjYiIGhlaWdodD0iMS45NyIvPiYjeGE7CQkJCTwvZz4mI3hhOwkJCQk8ZyBpZD0ic2hhcGUzNjg2LTI3IiB0cmFuc2Zvcm09InRyYW5zbGF0ZSgwLC00My4zNjk4KSI+JiN4YTsJCQkJCTx0aXRsZSBpZD0idGl0bGUzNTc3MSI+cmVjdDE1NjE4PC90aXRsZT4mI3hhOwkJCQkJPHJlY3QgaWQ9InJlY3QzNTc3MyIgeD0iMCIgeT0iNzIiIHN0eWxlPSJmaWxsOiMyQkM3RjQ7IiB3aWR0aD0iMTUuNzciIGhlaWdodD0iMS45NyIvPiYjeGE7CQkJCTwvZz4mI3hhOwkJCQk8ZyBpZD0ic2hhcGUzNjg3LTI5IiB0cmFuc2Zvcm09InRyYW5zbGF0ZSgxNS4xMTM3LC00My4zNjk4KSI+JiN4YTsJCQkJCTx0aXRsZSBpZD0idGl0bGUzNTc3NiI+cmVjdDE1NjIwPC90aXRsZT4mI3hhOwkJCQkJPHJlY3QgaWQ9InJlY3QzNTc3OCIgeD0iMCIgeT0iNzIiIHN0eWxlPSJmaWxsOiM1NTZBOEE7IiB3aWR0aD0iMTMuOCIgaGVpZ2h0PSIxLjk3Ii8+JiN4YTsJCQkJPC9nPiYjeGE7CQkJPC9nPiYjeGE7CQkJPGcgaWQ9InNoYXBlMzY4OC0zMSIgdHJhbnNmb3JtPSJ0cmFuc2xhdGUoMC42NTcxMTksLTQ0LjAyNykiPiYjeGE7CQkJCTx0aXRsZSBpZD0idGl0bGUzNTc4MiI+cmVjdDE1NjI0PC90aXRsZT4mI3hhOwkJCQk8cmVjdCBpZD0icmVjdDM1Nzg0IiB4PSIwIiB5PSI3MiIgc3R5bGU9ImZpbGw6IzU1NkE4QTsiIHdpZHRoPSIxLjk3IiBoZWlnaHQ9IjEuOTciLz4mI3hhOwkJCTwvZz4mI3hhOwkJCTxnIGlkPSJzaGFwZTM2ODktMzMiIHRyYW5zZm9ybT0idHJhbnNsYXRlKDEuMzE0MjQsLTM4Ljc3KSI+JiN4YTsJCQkJPHRpdGxlIGlkPSJ0aXRsZTM1Nzg3Ij5yZWN0MTU2MjY8L3RpdGxlPiYjeGE7CQkJCTxyZWN0IGlkPSJyZWN0MzU3ODkiIHg9IjAiIHk9IjcyIiBzdHlsZT0iZmlsbDojMkJDN0Y0OyIgd2lkdGg9IjE1Ljc3IiBoZWlnaHQ9IjEuOTciLz4mI3hhOwkJCTwvZz4mI3hhOwkJCTxnIGlkPSJzaGFwZTM2OTAtMzUiIHRyYW5zZm9ybT0idHJhbnNsYXRlKDE2LjQyOCwtMzguNzcpIj4mI3hhOwkJCQk8dGl0bGUgaWQ9InRpdGxlMzU3OTIiPnJlY3QxNTYyODwvdGl0bGU+JiN4YTsJCQkJPHJlY3QgaWQ9InJlY3QzNTc5NCIgeD0iMCIgeT0iNzIiIHN0eWxlPSJmaWxsOiM1NTZBOEE7IiB3aWR0aD0iMTMuOCIgaGVpZ2h0PSIxLjk3Ii8+JiN4YTsJCQk8L2c+JiN4YTsJCQk8ZyBpZD0ic2hhcGUzNjkxLTM3IiB0cmFuc2Zvcm09InRyYW5zbGF0ZSgwLjY1NzExOSwtMzguNzcpIj4mI3hhOwkJCQk8dGl0bGUgaWQ9InRpdGxlMzU3OTciPnJlY3QxNTYzMDwvdGl0bGU+JiN4YTsJCQkJPHJlY3QgaWQ9InJlY3QzNTc5OSIgeD0iMCIgeT0iNzIiIHN0eWxlPSJmaWxsOiM1NTZBOEE7IiB3aWR0aD0iMS45NyIgaGVpZ2h0PSIxLjk3Ii8+JiN4YTsJCQk8L2c+JiN4YTsJCTwvZz4mI3hhOwk8L2c+JiN4YTs8L2c+JiN4YTs8L3N2Zz4=;imageBackground=none;" vertex="1" parent="1">
          <mxGeometry x="720" y="690" width="54" height="72" as="geometry" />
        </mxCell>
        <mxCell id="5i07NRJmOnCf9pgSvCBg-80" style="edgeStyle=none;rounded=0;orthogonalLoop=1;jettySize=auto;html=1;" edge="1" parent="1" target="5i07NRJmOnCf9pgSvCBg-48">
          <mxGeometry relative="1" as="geometry">
            <mxPoint x="150" y="775" as="sourcePoint" />
          </mxGeometry>
        </mxCell>
        <mxCell id="5i07NRJmOnCf9pgSvCBg-12" value="" style="shape=image;verticalLabelPosition=bottom;labelBackgroundColor=#ffffff;verticalAlign=top;aspect=fixed;imageAspect=0;image=data:image/svg+xml,PHN2ZyB4bWxuczpjYz0iaHR0cDovL2NyZWF0aXZlY29tbW9ucy5vcmcvbnMjIiB4bWxuczpkYz0iaHR0cDovL3B1cmwub3JnL2RjL2VsZW1lbnRzLzEuMS8iIHhtbG5zOmlua3NjYXBlPSJodHRwOi8vd3d3Lmlua3NjYXBlLm9yZy9uYW1lc3BhY2VzL2lua3NjYXBlIiB4bWxuczpyZGY9Imh0dHA6Ly93d3cudzMub3JnLzE5OTkvMDIvMjItcmRmLXN5bnRheC1ucyMiIHhtbG5zOnNvZGlwb2RpPSJodHRwOi8vc29kaXBvZGkuc291cmNlZm9yZ2UubmV0L0RURC9zb2RpcG9kaS0wLmR0ZCIgeG1sbnM6c3ZnPSJodHRwOi8vd3d3LnczLm9yZy8yMDAwL3N2ZyIgeG1sbnM9Imh0dHA6Ly93d3cudzMub3JnLzIwMDAvc3ZnIiB4bWxuczp4bGluaz0iaHR0cDovL3d3dy53My5vcmcvMTk5OS94bGluayIgdmVyc2lvbj0iMS4xIiBpZD0ic3ZnMTU5OTk0IiBpbmtzY2FwZTp2ZXJzaW9uPSIwLjkyLjMgKDI0MDU1NDYsIDIwMTgtMDMtMTEpIiBzb2RpcG9kaTpkb2NuYW1lPSJjbG91ZC5zdmciIHg9IjBweCIgeT0iMHB4IiB2aWV3Qm94PSIwIDAgOTguNjMgNTUuNDkiIHN0eWxlPSJlbmFibGUtYmFja2dyb3VuZDpuZXcgMCAwIDk4LjYzIDU1LjQ5OyIgeG1sOnNwYWNlPSJwcmVzZXJ2ZSI+JiN4YTs8c29kaXBvZGk6bmFtZWR2aWV3IGJvcmRlcmNvbG9yPSIjNjY2NjY2IiBib3JkZXJvcGFjaXR5PSIxIiBmaXQtbWFyZ2luLWJvdHRvbT0iMCIgZml0LW1hcmdpbi1sZWZ0PSIwIiBmaXQtbWFyZ2luLXJpZ2h0PSIwIiBmaXQtbWFyZ2luLXRvcD0iMCIgZ3JpZHRvbGVyYW5jZT0iMTAiIGd1aWRldG9sZXJhbmNlPSIxMCIgaWQ9Im5hbWVkdmlldzE1OTk5NiIgaW5rc2NhcGU6Y3VycmVudC1sYXllcj0ic3ZnMTU5OTk0IiBpbmtzY2FwZTpjeD0iOTQuNDE3MTI2IiBpbmtzY2FwZTpjeT0iMTcuMjUyNzU5IiBpbmtzY2FwZTpwYWdlb3BhY2l0eT0iMCIgaW5rc2NhcGU6cGFnZXNoYWRvdz0iMiIgaW5rc2NhcGU6d2luZG93LWhlaWdodD0iMTAxNyIgaW5rc2NhcGU6d2luZG93LW1heGltaXplZD0iMSIgaW5rc2NhcGU6d2luZG93LXdpZHRoPSIxOTIwIiBpbmtzY2FwZTp3aW5kb3cteD0iLTgiIGlua3NjYXBlOndpbmRvdy15PSItOCIgaW5rc2NhcGU6em9vbT0iNS44NTk1MzIzIiBvYmplY3R0b2xlcmFuY2U9IjEwIiBwYWdlY29sb3I9IiNmZmZmZmYiIHNob3dncmlkPSJmYWxzZSI+JiN4YTsJPC9zb2RpcG9kaTpuYW1lZHZpZXc+JiN4YTs8ZyBpZD0iZzE1OTk5MiIgdHJhbnNmb3JtPSJ0cmFuc2xhdGUoMCwtNS40MDY5NTQ4ZS01KSI+JiN4YTsJPHRpdGxlIGlkPSJ0aXRsZTE1OTk4NSI+UGFnZS0xPC90aXRsZT4mI3hhOwk8ZyBpZD0ic2hhcGUzNDQyLTEiPiYjeGE7CQk8dGl0bGUgaWQ9InRpdGxlMTU5OTg3Ij5DbG91ZCAjMTwvdGl0bGU+JiN4YTsJCTxwYXRoIGlkPSJwYXRoMTU5OTg5IiBpbmtzY2FwZTpjb25uZWN0b3ItY3VydmF0dXJlPSIwIiBzdHlsZT0iZmlsbDojM0Y1NzY1OyIgZD0iTTc3LjY3LDU1LjQ5Yy02MC45NywwLTYwLjk3LDAtNjAuOTcsMCAgICBDNy4xNyw1NS40OSwwLDQ3LjY3LDAsMzguNjFjMC05LjYyLDcuMTctMTcuNTUsMTYuNy0xNy41NWMxLjc5LDAsMy41OSwwLjY4LDUuMzgsMS4yNUMyNC40Myw5LjA2LDM1Ljg3LDAsNDguOTgsMCAgICBjMTAuMiwwLDE5LjE2LDUuNDQsMjMuODcsMTMuODJjMS44LDAsMy4wMy0wLjU3LDQuODItMC41N2MxMS4zMiwwLDIwLjk2LDkuNjIsMjAuOTYsMjEuMTdDOTguNjMsNDUuODYsODguOTksNTUuNDksNzcuNjcsNTUuNDl6ICAgICBNMTYuNywyNS45M2MtNi42MSwwLTExLjk5LDYtMTEuOTksMTIuNjhjMCw2LjY5LDUuMzgsMTIuMTIsMTEuOTksMTIuMTJjNjAuOTcsMCw2MC45NywwLDYwLjk3LDBjOC45NywwLDE2LjE0LTcuMjUsMTYuMTQtMTYuMzEgICAgYzAtOS4wNS03LjE3LTE2LjMtMTYuMTQtMTYuM2MtMS43OSwwLTMuNTksMC41Ni00LjgyLDEuMTNjLTIuMzUsMC42OC0yLjM1LDAuNjgtMi4zNSwwLjY4Yy0wLjU2LTEuODEtMC41Ni0xLjgxLTAuNTYtMS44MSAgICBDNjUuNjgsOS42Myw1Ny45NSw0Ljc2LDQ4Ljk4LDQuNzZjLTExLjk5LDAtMjIuMDgsOS4wNi0yMi43NSwyMS4xN2MtMC41NiwzLjYzLTAuNTYsMy42My0wLjU2LDMuNjMgICAgYy0zLjAzLTEuODItMy4wMy0xLjgyLTMuMDMtMS44MkMyMC44NSwyNi41LDE4LjQ5LDI1LjkzLDE2LjcsMjUuOTN6Ii8+JiN4YTsJPC9nPiYjeGE7PC9nPiYjeGE7PC9zdmc+;" vertex="1" parent="1">
          <mxGeometry x="40" y="747.5" width="99" height="55" as="geometry" />
        </mxCell>
        <mxCell id="5i07NRJmOnCf9pgSvCBg-81" style="edgeStyle=none;rounded=0;orthogonalLoop=1;jettySize=auto;html=1;" edge="1" parent="1" source="5i07NRJmOnCf9pgSvCBg-15" target="5i07NRJmOnCf9pgSvCBg-48">
          <mxGeometry relative="1" as="geometry" />
        </mxCell>
        <mxCell id="5i07NRJmOnCf9pgSvCBg-15" value="" style="shape=image;verticalLabelPosition=bottom;labelBackgroundColor=#ffffff;verticalAlign=top;aspect=fixed;imageAspect=0;image=data:image/svg+xml,PHN2ZyB4bWxuczpjYz0iaHR0cDovL2NyZWF0aXZlY29tbW9ucy5vcmcvbnMjIiB4bWxuczpkYz0iaHR0cDovL3B1cmwub3JnL2RjL2VsZW1lbnRzLzEuMS8iIHhtbG5zOmlua3NjYXBlPSJodHRwOi8vd3d3Lmlua3NjYXBlLm9yZy9uYW1lc3BhY2VzL2lua3NjYXBlIiB4bWxuczpyZGY9Imh0dHA6Ly93d3cudzMub3JnLzE5OTkvMDIvMjItcmRmLXN5bnRheC1ucyMiIHhtbG5zOnNvZGlwb2RpPSJodHRwOi8vc29kaXBvZGkuc291cmNlZm9yZ2UubmV0L0RURC9zb2RpcG9kaS0wLmR0ZCIgeG1sbnM6c3ZnPSJodHRwOi8vd3d3LnczLm9yZy8yMDAwL3N2ZyIgeG1sbnM9Imh0dHA6Ly93d3cudzMub3JnLzIwMDAvc3ZnIiB4bWxuczp4bGluaz0iaHR0cDovL3d3dy53My5vcmcvMTk5OS94bGluayIgdmVyc2lvbj0iMS4xIiBpZD0ic3ZnMTU5OTk0IiBpbmtzY2FwZTp2ZXJzaW9uPSIwLjkyLjMgKDI0MDU1NDYsIDIwMTgtMDMtMTEpIiBzb2RpcG9kaTpkb2NuYW1lPSJjbG91ZC5zdmciIHg9IjBweCIgeT0iMHB4IiB2aWV3Qm94PSIwIDAgOTguNjMgNTUuNDkiIHN0eWxlPSJlbmFibGUtYmFja2dyb3VuZDpuZXcgMCAwIDk4LjYzIDU1LjQ5OyIgeG1sOnNwYWNlPSJwcmVzZXJ2ZSI+JiN4YTs8c29kaXBvZGk6bmFtZWR2aWV3IGJvcmRlcmNvbG9yPSIjNjY2NjY2IiBib3JkZXJvcGFjaXR5PSIxIiBmaXQtbWFyZ2luLWJvdHRvbT0iMCIgZml0LW1hcmdpbi1sZWZ0PSIwIiBmaXQtbWFyZ2luLXJpZ2h0PSIwIiBmaXQtbWFyZ2luLXRvcD0iMCIgZ3JpZHRvbGVyYW5jZT0iMTAiIGd1aWRldG9sZXJhbmNlPSIxMCIgaWQ9Im5hbWVkdmlldzE1OTk5NiIgaW5rc2NhcGU6Y3VycmVudC1sYXllcj0ic3ZnMTU5OTk0IiBpbmtzY2FwZTpjeD0iOTQuNDE3MTI2IiBpbmtzY2FwZTpjeT0iMTcuMjUyNzU5IiBpbmtzY2FwZTpwYWdlb3BhY2l0eT0iMCIgaW5rc2NhcGU6cGFnZXNoYWRvdz0iMiIgaW5rc2NhcGU6d2luZG93LWhlaWdodD0iMTAxNyIgaW5rc2NhcGU6d2luZG93LW1heGltaXplZD0iMSIgaW5rc2NhcGU6d2luZG93LXdpZHRoPSIxOTIwIiBpbmtzY2FwZTp3aW5kb3cteD0iLTgiIGlua3NjYXBlOndpbmRvdy15PSItOCIgaW5rc2NhcGU6em9vbT0iNS44NTk1MzIzIiBvYmplY3R0b2xlcmFuY2U9IjEwIiBwYWdlY29sb3I9IiNmZmZmZmYiIHNob3dncmlkPSJmYWxzZSI+JiN4YTsJPC9zb2RpcG9kaTpuYW1lZHZpZXc+JiN4YTs8ZyBpZD0iZzE1OTk5MiIgdHJhbnNmb3JtPSJ0cmFuc2xhdGUoMCwtNS40MDY5NTQ4ZS01KSI+JiN4YTsJPHRpdGxlIGlkPSJ0aXRsZTE1OTk4NSI+UGFnZS0xPC90aXRsZT4mI3hhOwk8ZyBpZD0ic2hhcGUzNDQyLTEiPiYjeGE7CQk8dGl0bGUgaWQ9InRpdGxlMTU5OTg3Ij5DbG91ZCAjMTwvdGl0bGU+JiN4YTsJCTxwYXRoIGlkPSJwYXRoMTU5OTg5IiBpbmtzY2FwZTpjb25uZWN0b3ItY3VydmF0dXJlPSIwIiBzdHlsZT0iZmlsbDojM0Y1NzY1OyIgZD0iTTc3LjY3LDU1LjQ5Yy02MC45NywwLTYwLjk3LDAtNjAuOTcsMCAgICBDNy4xNyw1NS40OSwwLDQ3LjY3LDAsMzguNjFjMC05LjYyLDcuMTctMTcuNTUsMTYuNy0xNy41NWMxLjc5LDAsMy41OSwwLjY4LDUuMzgsMS4yNUMyNC40Myw5LjA2LDM1Ljg3LDAsNDguOTgsMCAgICBjMTAuMiwwLDE5LjE2LDUuNDQsMjMuODcsMTMuODJjMS44LDAsMy4wMy0wLjU3LDQuODItMC41N2MxMS4zMiwwLDIwLjk2LDkuNjIsMjAuOTYsMjEuMTdDOTguNjMsNDUuODYsODguOTksNTUuNDksNzcuNjcsNTUuNDl6ICAgICBNMTYuNywyNS45M2MtNi42MSwwLTExLjk5LDYtMTEuOTksMTIuNjhjMCw2LjY5LDUuMzgsMTIuMTIsMTEuOTksMTIuMTJjNjAuOTcsMCw2MC45NywwLDYwLjk3LDBjOC45NywwLDE2LjE0LTcuMjUsMTYuMTQtMTYuMzEgICAgYzAtOS4wNS03LjE3LTE2LjMtMTYuMTQtMTYuM2MtMS43OSwwLTMuNTksMC41Ni00LjgyLDEuMTNjLTIuMzUsMC42OC0yLjM1LDAuNjgtMi4zNSwwLjY4Yy0wLjU2LTEuODEtMC41Ni0xLjgxLTAuNTYtMS44MSAgICBDNjUuNjgsOS42Myw1Ny45NSw0Ljc2LDQ4Ljk4LDQuNzZjLTExLjk5LDAtMjIuMDgsOS4wNi0yMi43NSwyMS4xN2MtMC41NiwzLjYzLTAuNTYsMy42My0wLjU2LDMuNjMgICAgYy0zLjAzLTEuODItMy4wMy0xLjgyLTMuMDMtMS44MkMyMC44NSwyNi41LDE4LjQ5LDI1LjkzLDE2LjcsMjUuOTN6Ii8+JiN4YTsJPC9nPiYjeGE7PC9nPiYjeGE7PC9zdmc+;" vertex="1" parent="1">
          <mxGeometry x="1000" y="747.5" width="99" height="55" as="geometry" />
        </mxCell>
        <mxCell id="5i07NRJmOnCf9pgSvCBg-24" value="ETH Node" style="shape=image;verticalLabelPosition=bottom;labelBackgroundColor=#ffffff;verticalAlign=top;aspect=fixed;imageAspect=0;image=data:image/svg+xml,PHN2ZyB4bWxuczpjYz0iaHR0cDovL2NyZWF0aXZlY29tbW9ucy5vcmcvbnMjIiB4bWxuczpkYz0iaHR0cDovL3B1cmwub3JnL2RjL2VsZW1lbnRzLzEuMS8iIHhtbG5zOmlua3NjYXBlPSJodHRwOi8vd3d3Lmlua3NjYXBlLm9yZy9uYW1lc3BhY2VzL2lua3NjYXBlIiB4bWxuczpyZGY9Imh0dHA6Ly93d3cudzMub3JnLzE5OTkvMDIvMjItcmRmLXN5bnRheC1ucyMiIHhtbG5zOnNvZGlwb2RpPSJodHRwOi8vc29kaXBvZGkuc291cmNlZm9yZ2UubmV0L0RURC9zb2RpcG9kaS0wLmR0ZCIgeG1sbnM6c3ZnPSJodHRwOi8vd3d3LnczLm9yZy8yMDAwL3N2ZyIgeG1sbnM9Imh0dHA6Ly93d3cudzMub3JnLzIwMDAvc3ZnIiB4bWxuczp4bGluaz0iaHR0cDovL3d3dy53My5vcmcvMTk5OS94bGluayIgdmVyc2lvbj0iMS4xIiBpZD0ic3ZnMzU4MDYiIGlua3NjYXBlOnZlcnNpb249IjAuOTIuMyAoMjQwNTU0NiwgMjAxOC0wMy0xMSkiIHNvZGlwb2RpOmRvY25hbWU9ImJpenRhbGtfYWRhcHRlci5zdmciIHg9IjBweCIgeT0iMHB4IiB2aWV3Qm94PSIwIDAgNTMuODggNzIuNDciIHN0eWxlPSJlbmFibGUtYmFja2dyb3VuZDpuZXcgMCAwIDUzLjg4IDcyLjQ3OyIgeG1sOnNwYWNlPSJwcmVzZXJ2ZSI+JiN4YTs8c29kaXBvZGk6bmFtZWR2aWV3IGJvcmRlcmNvbG9yPSIjNjY2NjY2IiBib3JkZXJvcGFjaXR5PSIxIiBmaXQtbWFyZ2luLWJvdHRvbT0iMCIgZml0LW1hcmdpbi1sZWZ0PSIwIiBmaXQtbWFyZ2luLXJpZ2h0PSIwIiBmaXQtbWFyZ2luLXRvcD0iMCIgZ3JpZHRvbGVyYW5jZT0iMTAiIGd1aWRldG9sZXJhbmNlPSIxMCIgaWQ9Im5hbWVkdmlldzM1ODA4IiBpbmtzY2FwZTpjdXJyZW50LWxheWVyPSJzdmczNTgwNiIgaW5rc2NhcGU6Y3g9Ii0xMi41ODYzNjkiIGlua3NjYXBlOmN5PSIyOS4zOTE1MDEiIGlua3NjYXBlOnBhZ2VvcGFjaXR5PSIwIiBpbmtzY2FwZTpwYWdlc2hhZG93PSIyIiBpbmtzY2FwZTp3aW5kb3ctaGVpZ2h0PSIxMDE3IiBpbmtzY2FwZTp3aW5kb3ctbWF4aW1pemVkPSIxIiBpbmtzY2FwZTp3aW5kb3ctd2lkdGg9IjE5MjAiIGlua3NjYXBlOndpbmRvdy14PSItOCIgaW5rc2NhcGU6d2luZG93LXk9Ii04IiBpbmtzY2FwZTp6b29tPSI0LjM5NTQ1MzEiIG9iamVjdHRvbGVyYW5jZT0iMTAiIHBhZ2Vjb2xvcj0iI2ZmZmZmZiIgc2hvd2dyaWQ9ImZhbHNlIj4mI3hhOwk8L3NvZGlwb2RpOm5hbWVkdmlldz4mI3hhOzxnIGlkPSJnMzU4MDQiIHRyYW5zZm9ybT0idHJhbnNsYXRlKC0xLjUwMzg0MywtMC43NTAwMDAzKSI+JiN4YTsJPHRpdGxlIGlkPSJ0aXRsZTM1NzE1Ij5QYWdlLTE8L3RpdGxlPiYjeGE7CTxnIGlkPSJncm91cDM2NzMtMSIgdHJhbnNmb3JtPSJ0cmFuc2xhdGUoMS41LC0xLjUpIj4mI3hhOwkJPHRpdGxlIGlkPSJ0aXRsZTM1NzE3Ij5CaXpUYWxrIEFkYXB0ZXI8L3RpdGxlPiYjeGE7CQk8ZyBpZD0iZ3JvdXAzNjc0LTIiPiYjeGE7CQkJPHRpdGxlIGlkPSJ0aXRsZTM1NzE5Ij5nMTU2MDg8L3RpdGxlPiYjeGE7CQkJPGcgaWQ9InNoYXBlMzY3NS0zIiB0cmFuc2Zvcm09InJvdGF0ZSgtOTAsMTAuMTg1MzUsNTkuODQwNzUpIj4mI3hhOwkJCQk8dGl0bGUgaWQ9InRpdGxlMzU3MjEiPmxpbmUxNTU5ODwvdGl0bGU+JiN4YTsJCQkJJiN4YTsJCQkJCTxwYXRoIGlkPSJwYXRoMzU3MjMiIGlua3NjYXBlOmNvbm5lY3Rvci1jdXJ2YXR1cmU9IjAiIHN0eWxlPSJmaWxsOm5vbmU7c3Ryb2tlOiM1NTZBOEE7c3Ryb2tlLXdpZHRoOjEuNTtzdHJva2UtbWl0ZXJsaW1pdDozOyIgZD0iICAgICAgTTAsNzMuOTdoMjUuNjMiLz4mI3hhOwkJCTwvZz4mI3hhOwkJCTxnIGlkPSJzaGFwZTM2NzYtNiIgdHJhbnNmb3JtPSJyb3RhdGUoOTAsMjkuNTcwMjUsNzMuOTY4NzUpIj4mI3hhOwkJCQk8dGl0bGUgaWQ9InRpdGxlMzU3MjYiPmxpbmUxNTYwMDwvdGl0bGU+JiN4YTsJCQkJJiN4YTsJCQkJCTxwYXRoIGlkPSJwYXRoMzU3MjgiIGlua3NjYXBlOmNvbm5lY3Rvci1jdXJ2YXR1cmU9IjAiIHN0eWxlPSJmaWxsOm5vbmU7c3Ryb2tlOiM1NTZBOEE7c3Ryb2tlLXdpZHRoOjEuNTtzdHJva2UtbWl0ZXJsaW1pdDozOyIgZD0iICAgICAgTTAsNzMuOTdoMjMuNjYiLz4mI3hhOwkJCTwvZz4mI3hhOwkJCTxnIGlkPSJzaGFwZTM2NzctOSIgdHJhbnNmb3JtPSJyb3RhdGUoMTgwLDI2Ljk0MTg1LDcwLjAyNikiPiYjeGE7CQkJCTx0aXRsZSBpZD0idGl0bGUzNTczMSI+bGluZTE1NjAyPC90aXRsZT4mI3hhOwkJCQkmI3hhOwkJCQkJPHBhdGggaWQ9InBhdGgzNTczMyIgaW5rc2NhcGU6Y29ubmVjdG9yLWN1cnZhdHVyZT0iMCIgc3R5bGU9ImZpbGw6bm9uZTtzdHJva2U6IzU1NkE4QTtzdHJva2Utd2lkdGg6MS41O3N0cm9rZS1taXRlcmxpbWl0OjM7IiBkPSIgICAgICBNMCw3My45N2g1My44OCIvPiYjeGE7CQkJPC9nPiYjeGE7CQkJPGcgaWQ9InNoYXBlMzY3OC0xMiIgdHJhbnNmb3JtPSJyb3RhdGUoMTgwLDI2Ljk0MTg1LDcyLjY1NDUpIj4mI3hhOwkJCQk8dGl0bGUgaWQ9InRpdGxlMzU3MzYiPmxpbmUxNTYwNDwvdGl0bGU+JiN4YTsJCQkJJiN4YTsJCQkJCTxwYXRoIGlkPSJwYXRoMzU3MzgiIGlua3NjYXBlOmNvbm5lY3Rvci1jdXJ2YXR1cmU9IjAiIHN0eWxlPSJmaWxsOm5vbmU7c3Ryb2tlOiM1NTZBOEE7c3Ryb2tlLXdpZHRoOjEuNTtzdHJva2UtbWl0ZXJsaW1pdDozOyIgZD0iICAgICAgTTAsNzMuOTdoNTMuODgiLz4mI3hhOwkJCTwvZz4mI3hhOwkJCTxnIGlkPSJzaGFwZTM2NzktMTUiIHRyYW5zZm9ybT0idHJhbnNsYXRlKDE5LjA1NjQpIj4mI3hhOwkJCQk8dGl0bGUgaWQ9InRpdGxlMzU3NDEiPnJlY3QxNTYwNjwvdGl0bGU+JiN4YTsJCQkJJiN4YTsJCQkJCTxwYXRoIGlkPSJwYXRoMzU3NDMiIGlua3NjYXBlOmNvbm5lY3Rvci1jdXJ2YXR1cmU9IjAiIHN0eWxlPSJmaWxsOiM5MjczQjY7c3Ryb2tlOiM1NTZBOEE7c3Ryb2tlLXdpZHRoOjEuNTtzdHJva2UtbWl0ZXJsaW1pdDozOyIgZD0iICAgICAgTTAsNzEuMzRjMCwxLjQ1LDEuMTgsMi42MywyLjYzLDIuNjNjMCwwLDAsMCwwLDBoMTAuNTFjMS40NSwwLDIuNjMtMS4xOCwyLjYzLTIuNjNjMCwwLDAsMCwwLDB2LTUuMjYgICAgICBjMC0xLjQ1LTEuMTgtMi42My0yLjYzLTIuNjNjMCwwLDAsMCwwLDBIMi42M0MxLjE4LDYzLjQ1LDAsNjQuNjMsMCw2Ni4wOGMwLDAsMCwwLDAsMFY3MS4zNHoiLz4mI3hhOwkJCTwvZz4mI3hhOwkJPC9nPiYjeGE7CQk8ZyBpZD0iZ3JvdXAzNjgwLTE3IiB0cmFuc2Zvcm09InRyYW5zbGF0ZSgxMS4xNzEsLTE5LjA1NjQpIj4mI3hhOwkJCTx0aXRsZSBpZD0idGl0bGUzNTc0NyI+ZzE1NjMyLjI0NjczPC90aXRsZT4mI3hhOwkJCTxnIGlkPSJzaGFwZTM2ODEtMTgiPiYjeGE7CQkJCTx0aXRsZSBpZD0idGl0bGUzNTc0OSI+cmVjdDE1NjEwPC90aXRsZT4mI3hhOwkJCQkmI3hhOwkJCQkJPHJlY3QgaWQ9InJlY3QzNTc1MSIgeD0iMCIgeT0iMjIuMDYiIHN0eWxlPSJmaWxsOiNGRkZGRkY7c3Ryb2tlOiM1NTZBOEE7c3Ryb2tlLXdpZHRoOjEuNTtzdHJva2UtbWl0ZXJsaW1pdDozOyIgd2lkdGg9IjMwLjg4IiBoZWlnaHQ9IjUxLjkxIi8+JiN4YTsJCQk8L2c+JiN4YTsJCQk8ZyBpZD0iZ3JvdXAzNjgyLTIwIiB0cmFuc2Zvcm09InRyYW5zbGF0ZSgxLjMxNDI0LC0wLjY1NzExOSkiPiYjeGE7CQkJCTx0aXRsZSBpZD0idGl0bGUzNTc1NCI+ZzE1NjIyPC90aXRsZT4mI3hhOwkJCQk8ZyBpZD0ic2hhcGUzNjgzLTIxIiB0cmFuc2Zvcm09InRyYW5zbGF0ZSgxNS4xMTM3KSI+JiN4YTsJCQkJCTx0aXRsZSBpZD0idGl0bGUzNTc1NiI+cmVjdDE1NjEyPC90aXRsZT4mI3hhOwkJCQkJPHJlY3QgaWQ9InJlY3QzNTc1OCIgeD0iMCIgeT0iMjMuMzciIHN0eWxlPSJmaWxsOiNFNUU1RTU7IiB3aWR0aD0iMTMuOCIgaGVpZ2h0PSI1MC42Ii8+JiN4YTsJCQkJPC9nPiYjeGE7CQkJCTxnIGlkPSJzaGFwZTM2ODQtMjMiIHRyYW5zZm9ybT0idHJhbnNsYXRlKDAsLTQzLjM2OTgpIj4mI3hhOwkJCQkJPHRpdGxlIGlkPSJ0aXRsZTM1NzYxIj5wb2x5Z29uMTU2MTQ8L3RpdGxlPiYjeGE7CQkJCQk8cmVjdCBpZD0icmVjdDM1NzYzIiB4PSIwIiB5PSI3MiIgc3R5bGU9ImZpbGw6bm9uZTsiIHdpZHRoPSIyMy42NiIgaGVpZ2h0PSIxLjk3Ii8+JiN4YTsJCQkJPC9nPiYjeGE7CQkJCTxnIGlkPSJzaGFwZTM2ODUtMjUiIHRyYW5zZm9ybT0idHJhbnNsYXRlKDAsLTQzLjM2OTgpIj4mI3hhOwkJCQkJPHRpdGxlIGlkPSJ0aXRsZTM1NzY2Ij5wb2x5bGluZTE1NjE2PC90aXRsZT4mI3hhOwkJCQkJPHJlY3QgaWQ9InJlY3QzNTc2OCIgeD0iMCIgeT0iNzIiIHN0eWxlPSJmaWxsOm5vbmU7IiB3aWR0aD0iMjMuNjYiIGhlaWdodD0iMS45NyIvPiYjeGE7CQkJCTwvZz4mI3hhOwkJCQk8ZyBpZD0ic2hhcGUzNjg2LTI3IiB0cmFuc2Zvcm09InRyYW5zbGF0ZSgwLC00My4zNjk4KSI+JiN4YTsJCQkJCTx0aXRsZSBpZD0idGl0bGUzNTc3MSI+cmVjdDE1NjE4PC90aXRsZT4mI3hhOwkJCQkJPHJlY3QgaWQ9InJlY3QzNTc3MyIgeD0iMCIgeT0iNzIiIHN0eWxlPSJmaWxsOiMyQkM3RjQ7IiB3aWR0aD0iMTUuNzciIGhlaWdodD0iMS45NyIvPiYjeGE7CQkJCTwvZz4mI3hhOwkJCQk8ZyBpZD0ic2hhcGUzNjg3LTI5IiB0cmFuc2Zvcm09InRyYW5zbGF0ZSgxNS4xMTM3LC00My4zNjk4KSI+JiN4YTsJCQkJCTx0aXRsZSBpZD0idGl0bGUzNTc3NiI+cmVjdDE1NjIwPC90aXRsZT4mI3hhOwkJCQkJPHJlY3QgaWQ9InJlY3QzNTc3OCIgeD0iMCIgeT0iNzIiIHN0eWxlPSJmaWxsOiM1NTZBOEE7IiB3aWR0aD0iMTMuOCIgaGVpZ2h0PSIxLjk3Ii8+JiN4YTsJCQkJPC9nPiYjeGE7CQkJPC9nPiYjeGE7CQkJPGcgaWQ9InNoYXBlMzY4OC0zMSIgdHJhbnNmb3JtPSJ0cmFuc2xhdGUoMC42NTcxMTksLTQ0LjAyNykiPiYjeGE7CQkJCTx0aXRsZSBpZD0idGl0bGUzNTc4MiI+cmVjdDE1NjI0PC90aXRsZT4mI3hhOwkJCQk8cmVjdCBpZD0icmVjdDM1Nzg0IiB4PSIwIiB5PSI3MiIgc3R5bGU9ImZpbGw6IzU1NkE4QTsiIHdpZHRoPSIxLjk3IiBoZWlnaHQ9IjEuOTciLz4mI3hhOwkJCTwvZz4mI3hhOwkJCTxnIGlkPSJzaGFwZTM2ODktMzMiIHRyYW5zZm9ybT0idHJhbnNsYXRlKDEuMzE0MjQsLTM4Ljc3KSI+JiN4YTsJCQkJPHRpdGxlIGlkPSJ0aXRsZTM1Nzg3Ij5yZWN0MTU2MjY8L3RpdGxlPiYjeGE7CQkJCTxyZWN0IGlkPSJyZWN0MzU3ODkiIHg9IjAiIHk9IjcyIiBzdHlsZT0iZmlsbDojMkJDN0Y0OyIgd2lkdGg9IjE1Ljc3IiBoZWlnaHQ9IjEuOTciLz4mI3hhOwkJCTwvZz4mI3hhOwkJCTxnIGlkPSJzaGFwZTM2OTAtMzUiIHRyYW5zZm9ybT0idHJhbnNsYXRlKDE2LjQyOCwtMzguNzcpIj4mI3hhOwkJCQk8dGl0bGUgaWQ9InRpdGxlMzU3OTIiPnJlY3QxNTYyODwvdGl0bGU+JiN4YTsJCQkJPHJlY3QgaWQ9InJlY3QzNTc5NCIgeD0iMCIgeT0iNzIiIHN0eWxlPSJmaWxsOiM1NTZBOEE7IiB3aWR0aD0iMTMuOCIgaGVpZ2h0PSIxLjk3Ii8+JiN4YTsJCQk8L2c+JiN4YTsJCQk8ZyBpZD0ic2hhcGUzNjkxLTM3IiB0cmFuc2Zvcm09InRyYW5zbGF0ZSgwLjY1NzExOSwtMzguNzcpIj4mI3hhOwkJCQk8dGl0bGUgaWQ9InRpdGxlMzU3OTciPnJlY3QxNTYzMDwvdGl0bGU+JiN4YTsJCQkJPHJlY3QgaWQ9InJlY3QzNTc5OSIgeD0iMCIgeT0iNzIiIHN0eWxlPSJmaWxsOiM1NTZBOEE7IiB3aWR0aD0iMS45NyIgaGVpZ2h0PSIxLjk3Ii8+JiN4YTsJCQk8L2c+JiN4YTsJCTwvZz4mI3hhOwk8L2c+JiN4YTs8L2c+JiN4YTs8L3N2Zz4=;imageBackground=none;" vertex="1" parent="1">
          <mxGeometry x="640" y="850" width="54" height="72" as="geometry" />
        </mxCell>
        <mxCell id="5i07NRJmOnCf9pgSvCBg-31" value="MVM Node" style="shape=image;verticalLabelPosition=bottom;labelBackgroundColor=#ffffff;verticalAlign=top;aspect=fixed;imageAspect=0;image=data:image/svg+xml,PHN2ZyB4bWxuczpjYz0iaHR0cDovL2NyZWF0aXZlY29tbW9ucy5vcmcvbnMjIiB4bWxuczpkYz0iaHR0cDovL3B1cmwub3JnL2RjL2VsZW1lbnRzLzEuMS8iIHhtbG5zOmlua3NjYXBlPSJodHRwOi8vd3d3Lmlua3NjYXBlLm9yZy9uYW1lc3BhY2VzL2lua3NjYXBlIiB4bWxuczpyZGY9Imh0dHA6Ly93d3cudzMub3JnLzE5OTkvMDIvMjItcmRmLXN5bnRheC1ucyMiIHhtbG5zOnNvZGlwb2RpPSJodHRwOi8vc29kaXBvZGkuc291cmNlZm9yZ2UubmV0L0RURC9zb2RpcG9kaS0wLmR0ZCIgeG1sbnM6c3ZnPSJodHRwOi8vd3d3LnczLm9yZy8yMDAwL3N2ZyIgeG1sbnM9Imh0dHA6Ly93d3cudzMub3JnLzIwMDAvc3ZnIiB4bWxuczp4bGluaz0iaHR0cDovL3d3dy53My5vcmcvMTk5OS94bGluayIgdmVyc2lvbj0iMS4xIiBpZD0ic3ZnMzU4MDYiIGlua3NjYXBlOnZlcnNpb249IjAuOTIuMyAoMjQwNTU0NiwgMjAxOC0wMy0xMSkiIHNvZGlwb2RpOmRvY25hbWU9ImJpenRhbGtfYWRhcHRlci5zdmciIHg9IjBweCIgeT0iMHB4IiB2aWV3Qm94PSIwIDAgNTMuODggNzIuNDciIHN0eWxlPSJlbmFibGUtYmFja2dyb3VuZDpuZXcgMCAwIDUzLjg4IDcyLjQ3OyIgeG1sOnNwYWNlPSJwcmVzZXJ2ZSI+JiN4YTs8c29kaXBvZGk6bmFtZWR2aWV3IGJvcmRlcmNvbG9yPSIjNjY2NjY2IiBib3JkZXJvcGFjaXR5PSIxIiBmaXQtbWFyZ2luLWJvdHRvbT0iMCIgZml0LW1hcmdpbi1sZWZ0PSIwIiBmaXQtbWFyZ2luLXJpZ2h0PSIwIiBmaXQtbWFyZ2luLXRvcD0iMCIgZ3JpZHRvbGVyYW5jZT0iMTAiIGd1aWRldG9sZXJhbmNlPSIxMCIgaWQ9Im5hbWVkdmlldzM1ODA4IiBpbmtzY2FwZTpjdXJyZW50LWxheWVyPSJzdmczNTgwNiIgaW5rc2NhcGU6Y3g9Ii0xMi41ODYzNjkiIGlua3NjYXBlOmN5PSIyOS4zOTE1MDEiIGlua3NjYXBlOnBhZ2VvcGFjaXR5PSIwIiBpbmtzY2FwZTpwYWdlc2hhZG93PSIyIiBpbmtzY2FwZTp3aW5kb3ctaGVpZ2h0PSIxMDE3IiBpbmtzY2FwZTp3aW5kb3ctbWF4aW1pemVkPSIxIiBpbmtzY2FwZTp3aW5kb3ctd2lkdGg9IjE5MjAiIGlua3NjYXBlOndpbmRvdy14PSItOCIgaW5rc2NhcGU6d2luZG93LXk9Ii04IiBpbmtzY2FwZTp6b29tPSI0LjM5NTQ1MzEiIG9iamVjdHRvbGVyYW5jZT0iMTAiIHBhZ2Vjb2xvcj0iI2ZmZmZmZiIgc2hvd2dyaWQ9ImZhbHNlIj4mI3hhOwk8L3NvZGlwb2RpOm5hbWVkdmlldz4mI3hhOzxnIGlkPSJnMzU4MDQiIHRyYW5zZm9ybT0idHJhbnNsYXRlKC0xLjUwMzg0MywtMC43NTAwMDAzKSI+JiN4YTsJPHRpdGxlIGlkPSJ0aXRsZTM1NzE1Ij5QYWdlLTE8L3RpdGxlPiYjeGE7CTxnIGlkPSJncm91cDM2NzMtMSIgdHJhbnNmb3JtPSJ0cmFuc2xhdGUoMS41LC0xLjUpIj4mI3hhOwkJPHRpdGxlIGlkPSJ0aXRsZTM1NzE3Ij5CaXpUYWxrIEFkYXB0ZXI8L3RpdGxlPiYjeGE7CQk8ZyBpZD0iZ3JvdXAzNjc0LTIiPiYjeGE7CQkJPHRpdGxlIGlkPSJ0aXRsZTM1NzE5Ij5nMTU2MDg8L3RpdGxlPiYjeGE7CQkJPGcgaWQ9InNoYXBlMzY3NS0zIiB0cmFuc2Zvcm09InJvdGF0ZSgtOTAsMTAuMTg1MzUsNTkuODQwNzUpIj4mI3hhOwkJCQk8dGl0bGUgaWQ9InRpdGxlMzU3MjEiPmxpbmUxNTU5ODwvdGl0bGU+JiN4YTsJCQkJJiN4YTsJCQkJCTxwYXRoIGlkPSJwYXRoMzU3MjMiIGlua3NjYXBlOmNvbm5lY3Rvci1jdXJ2YXR1cmU9IjAiIHN0eWxlPSJmaWxsOm5vbmU7c3Ryb2tlOiM1NTZBOEE7c3Ryb2tlLXdpZHRoOjEuNTtzdHJva2UtbWl0ZXJsaW1pdDozOyIgZD0iICAgICAgTTAsNzMuOTdoMjUuNjMiLz4mI3hhOwkJCTwvZz4mI3hhOwkJCTxnIGlkPSJzaGFwZTM2NzYtNiIgdHJhbnNmb3JtPSJyb3RhdGUoOTAsMjkuNTcwMjUsNzMuOTY4NzUpIj4mI3hhOwkJCQk8dGl0bGUgaWQ9InRpdGxlMzU3MjYiPmxpbmUxNTYwMDwvdGl0bGU+JiN4YTsJCQkJJiN4YTsJCQkJCTxwYXRoIGlkPSJwYXRoMzU3MjgiIGlua3NjYXBlOmNvbm5lY3Rvci1jdXJ2YXR1cmU9IjAiIHN0eWxlPSJmaWxsOm5vbmU7c3Ryb2tlOiM1NTZBOEE7c3Ryb2tlLXdpZHRoOjEuNTtzdHJva2UtbWl0ZXJsaW1pdDozOyIgZD0iICAgICAgTTAsNzMuOTdoMjMuNjYiLz4mI3hhOwkJCTwvZz4mI3hhOwkJCTxnIGlkPSJzaGFwZTM2NzctOSIgdHJhbnNmb3JtPSJyb3RhdGUoMTgwLDI2Ljk0MTg1LDcwLjAyNikiPiYjeGE7CQkJCTx0aXRsZSBpZD0idGl0bGUzNTczMSI+bGluZTE1NjAyPC90aXRsZT4mI3hhOwkJCQkmI3hhOwkJCQkJPHBhdGggaWQ9InBhdGgzNTczMyIgaW5rc2NhcGU6Y29ubmVjdG9yLWN1cnZhdHVyZT0iMCIgc3R5bGU9ImZpbGw6bm9uZTtzdHJva2U6IzU1NkE4QTtzdHJva2Utd2lkdGg6MS41O3N0cm9rZS1taXRlcmxpbWl0OjM7IiBkPSIgICAgICBNMCw3My45N2g1My44OCIvPiYjeGE7CQkJPC9nPiYjeGE7CQkJPGcgaWQ9InNoYXBlMzY3OC0xMiIgdHJhbnNmb3JtPSJyb3RhdGUoMTgwLDI2Ljk0MTg1LDcyLjY1NDUpIj4mI3hhOwkJCQk8dGl0bGUgaWQ9InRpdGxlMzU3MzYiPmxpbmUxNTYwNDwvdGl0bGU+JiN4YTsJCQkJJiN4YTsJCQkJCTxwYXRoIGlkPSJwYXRoMzU3MzgiIGlua3NjYXBlOmNvbm5lY3Rvci1jdXJ2YXR1cmU9IjAiIHN0eWxlPSJmaWxsOm5vbmU7c3Ryb2tlOiM1NTZBOEE7c3Ryb2tlLXdpZHRoOjEuNTtzdHJva2UtbWl0ZXJsaW1pdDozOyIgZD0iICAgICAgTTAsNzMuOTdoNTMuODgiLz4mI3hhOwkJCTwvZz4mI3hhOwkJCTxnIGlkPSJzaGFwZTM2NzktMTUiIHRyYW5zZm9ybT0idHJhbnNsYXRlKDE5LjA1NjQpIj4mI3hhOwkJCQk8dGl0bGUgaWQ9InRpdGxlMzU3NDEiPnJlY3QxNTYwNjwvdGl0bGU+JiN4YTsJCQkJJiN4YTsJCQkJCTxwYXRoIGlkPSJwYXRoMzU3NDMiIGlua3NjYXBlOmNvbm5lY3Rvci1jdXJ2YXR1cmU9IjAiIHN0eWxlPSJmaWxsOiM5MjczQjY7c3Ryb2tlOiM1NTZBOEE7c3Ryb2tlLXdpZHRoOjEuNTtzdHJva2UtbWl0ZXJsaW1pdDozOyIgZD0iICAgICAgTTAsNzEuMzRjMCwxLjQ1LDEuMTgsMi42MywyLjYzLDIuNjNjMCwwLDAsMCwwLDBoMTAuNTFjMS40NSwwLDIuNjMtMS4xOCwyLjYzLTIuNjNjMCwwLDAsMCwwLDB2LTUuMjYgICAgICBjMC0xLjQ1LTEuMTgtMi42My0yLjYzLTIuNjNjMCwwLDAsMCwwLDBIMi42M0MxLjE4LDYzLjQ1LDAsNjQuNjMsMCw2Ni4wOGMwLDAsMCwwLDAsMFY3MS4zNHoiLz4mI3hhOwkJCTwvZz4mI3hhOwkJPC9nPiYjeGE7CQk8ZyBpZD0iZ3JvdXAzNjgwLTE3IiB0cmFuc2Zvcm09InRyYW5zbGF0ZSgxMS4xNzEsLTE5LjA1NjQpIj4mI3hhOwkJCTx0aXRsZSBpZD0idGl0bGUzNTc0NyI+ZzE1NjMyLjI0NjczPC90aXRsZT4mI3hhOwkJCTxnIGlkPSJzaGFwZTM2ODEtMTgiPiYjeGE7CQkJCTx0aXRsZSBpZD0idGl0bGUzNTc0OSI+cmVjdDE1NjEwPC90aXRsZT4mI3hhOwkJCQkmI3hhOwkJCQkJPHJlY3QgaWQ9InJlY3QzNTc1MSIgeD0iMCIgeT0iMjIuMDYiIHN0eWxlPSJmaWxsOiNGRkZGRkY7c3Ryb2tlOiM1NTZBOEE7c3Ryb2tlLXdpZHRoOjEuNTtzdHJva2UtbWl0ZXJsaW1pdDozOyIgd2lkdGg9IjMwLjg4IiBoZWlnaHQ9IjUxLjkxIi8+JiN4YTsJCQk8L2c+JiN4YTsJCQk8ZyBpZD0iZ3JvdXAzNjgyLTIwIiB0cmFuc2Zvcm09InRyYW5zbGF0ZSgxLjMxNDI0LC0wLjY1NzExOSkiPiYjeGE7CQkJCTx0aXRsZSBpZD0idGl0bGUzNTc1NCI+ZzE1NjIyPC90aXRsZT4mI3hhOwkJCQk8ZyBpZD0ic2hhcGUzNjgzLTIxIiB0cmFuc2Zvcm09InRyYW5zbGF0ZSgxNS4xMTM3KSI+JiN4YTsJCQkJCTx0aXRsZSBpZD0idGl0bGUzNTc1NiI+cmVjdDE1NjEyPC90aXRsZT4mI3hhOwkJCQkJPHJlY3QgaWQ9InJlY3QzNTc1OCIgeD0iMCIgeT0iMjMuMzciIHN0eWxlPSJmaWxsOiNFNUU1RTU7IiB3aWR0aD0iMTMuOCIgaGVpZ2h0PSI1MC42Ii8+JiN4YTsJCQkJPC9nPiYjeGE7CQkJCTxnIGlkPSJzaGFwZTM2ODQtMjMiIHRyYW5zZm9ybT0idHJhbnNsYXRlKDAsLTQzLjM2OTgpIj4mI3hhOwkJCQkJPHRpdGxlIGlkPSJ0aXRsZTM1NzYxIj5wb2x5Z29uMTU2MTQ8L3RpdGxlPiYjeGE7CQkJCQk8cmVjdCBpZD0icmVjdDM1NzYzIiB4PSIwIiB5PSI3MiIgc3R5bGU9ImZpbGw6bm9uZTsiIHdpZHRoPSIyMy42NiIgaGVpZ2h0PSIxLjk3Ii8+JiN4YTsJCQkJPC9nPiYjeGE7CQkJCTxnIGlkPSJzaGFwZTM2ODUtMjUiIHRyYW5zZm9ybT0idHJhbnNsYXRlKDAsLTQzLjM2OTgpIj4mI3hhOwkJCQkJPHRpdGxlIGlkPSJ0aXRsZTM1NzY2Ij5wb2x5bGluZTE1NjE2PC90aXRsZT4mI3hhOwkJCQkJPHJlY3QgaWQ9InJlY3QzNTc2OCIgeD0iMCIgeT0iNzIiIHN0eWxlPSJmaWxsOm5vbmU7IiB3aWR0aD0iMjMuNjYiIGhlaWdodD0iMS45NyIvPiYjeGE7CQkJCTwvZz4mI3hhOwkJCQk8ZyBpZD0ic2hhcGUzNjg2LTI3IiB0cmFuc2Zvcm09InRyYW5zbGF0ZSgwLC00My4zNjk4KSI+JiN4YTsJCQkJCTx0aXRsZSBpZD0idGl0bGUzNTc3MSI+cmVjdDE1NjE4PC90aXRsZT4mI3hhOwkJCQkJPHJlY3QgaWQ9InJlY3QzNTc3MyIgeD0iMCIgeT0iNzIiIHN0eWxlPSJmaWxsOiMyQkM3RjQ7IiB3aWR0aD0iMTUuNzciIGhlaWdodD0iMS45NyIvPiYjeGE7CQkJCTwvZz4mI3hhOwkJCQk8ZyBpZD0ic2hhcGUzNjg3LTI5IiB0cmFuc2Zvcm09InRyYW5zbGF0ZSgxNS4xMTM3LC00My4zNjk4KSI+JiN4YTsJCQkJCTx0aXRsZSBpZD0idGl0bGUzNTc3NiI+cmVjdDE1NjIwPC90aXRsZT4mI3hhOwkJCQkJPHJlY3QgaWQ9InJlY3QzNTc3OCIgeD0iMCIgeT0iNzIiIHN0eWxlPSJmaWxsOiM1NTZBOEE7IiB3aWR0aD0iMTMuOCIgaGVpZ2h0PSIxLjk3Ii8+JiN4YTsJCQkJPC9nPiYjeGE7CQkJPC9nPiYjeGE7CQkJPGcgaWQ9InNoYXBlMzY4OC0zMSIgdHJhbnNmb3JtPSJ0cmFuc2xhdGUoMC42NTcxMTksLTQ0LjAyNykiPiYjeGE7CQkJCTx0aXRsZSBpZD0idGl0bGUzNTc4MiI+cmVjdDE1NjI0PC90aXRsZT4mI3hhOwkJCQk8cmVjdCBpZD0icmVjdDM1Nzg0IiB4PSIwIiB5PSI3MiIgc3R5bGU9ImZpbGw6IzU1NkE4QTsiIHdpZHRoPSIxLjk3IiBoZWlnaHQ9IjEuOTciLz4mI3hhOwkJCTwvZz4mI3hhOwkJCTxnIGlkPSJzaGFwZTM2ODktMzMiIHRyYW5zZm9ybT0idHJhbnNsYXRlKDEuMzE0MjQsLTM4Ljc3KSI+JiN4YTsJCQkJPHRpdGxlIGlkPSJ0aXRsZTM1Nzg3Ij5yZWN0MTU2MjY8L3RpdGxlPiYjeGE7CQkJCTxyZWN0IGlkPSJyZWN0MzU3ODkiIHg9IjAiIHk9IjcyIiBzdHlsZT0iZmlsbDojMkJDN0Y0OyIgd2lkdGg9IjE1Ljc3IiBoZWlnaHQ9IjEuOTciLz4mI3hhOwkJCTwvZz4mI3hhOwkJCTxnIGlkPSJzaGFwZTM2OTAtMzUiIHRyYW5zZm9ybT0idHJhbnNsYXRlKDE2LjQyOCwtMzguNzcpIj4mI3hhOwkJCQk8dGl0bGUgaWQ9InRpdGxlMzU3OTIiPnJlY3QxNTYyODwvdGl0bGU+JiN4YTsJCQkJPHJlY3QgaWQ9InJlY3QzNTc5NCIgeD0iMCIgeT0iNzIiIHN0eWxlPSJmaWxsOiM1NTZBOEE7IiB3aWR0aD0iMTMuOCIgaGVpZ2h0PSIxLjk3Ii8+JiN4YTsJCQk8L2c+JiN4YTsJCQk8ZyBpZD0ic2hhcGUzNjkxLTM3IiB0cmFuc2Zvcm09InRyYW5zbGF0ZSgwLjY1NzExOSwtMzguNzcpIj4mI3hhOwkJCQk8dGl0bGUgaWQ9InRpdGxlMzU3OTciPnJlY3QxNTYzMDwvdGl0bGU+JiN4YTsJCQkJPHJlY3QgaWQ9InJlY3QzNTc5OSIgeD0iMCIgeT0iNzIiIHN0eWxlPSJmaWxsOiM1NTZBOEE7IiB3aWR0aD0iMS45NyIgaGVpZ2h0PSIxLjk3Ii8+JiN4YTsJCQk8L2c+JiN4YTsJCTwvZz4mI3hhOwk8L2c+JiN4YTs8L2c+JiN4YTs8L3N2Zz4=;imageBackground=none;" vertex="1" parent="1">
          <mxGeometry x="435" y="220" width="54" height="72" as="geometry" />
        </mxCell>
        <mxCell id="5i07NRJmOnCf9pgSvCBg-34" value="MVM Node" style="shape=image;verticalLabelPosition=bottom;labelBackgroundColor=#ffffff;verticalAlign=top;aspect=fixed;imageAspect=0;image=data:image/svg+xml,PHN2ZyB4bWxuczpjYz0iaHR0cDovL2NyZWF0aXZlY29tbW9ucy5vcmcvbnMjIiB4bWxuczpkYz0iaHR0cDovL3B1cmwub3JnL2RjL2VsZW1lbnRzLzEuMS8iIHhtbG5zOmlua3NjYXBlPSJodHRwOi8vd3d3Lmlua3NjYXBlLm9yZy9uYW1lc3BhY2VzL2lua3NjYXBlIiB4bWxuczpyZGY9Imh0dHA6Ly93d3cudzMub3JnLzE5OTkvMDIvMjItcmRmLXN5bnRheC1ucyMiIHhtbG5zOnNvZGlwb2RpPSJodHRwOi8vc29kaXBvZGkuc291cmNlZm9yZ2UubmV0L0RURC9zb2RpcG9kaS0wLmR0ZCIgeG1sbnM6c3ZnPSJodHRwOi8vd3d3LnczLm9yZy8yMDAwL3N2ZyIgeG1sbnM9Imh0dHA6Ly93d3cudzMub3JnLzIwMDAvc3ZnIiB4bWxuczp4bGluaz0iaHR0cDovL3d3dy53My5vcmcvMTk5OS94bGluayIgdmVyc2lvbj0iMS4xIiBpZD0ic3ZnMzU4MDYiIGlua3NjYXBlOnZlcnNpb249IjAuOTIuMyAoMjQwNTU0NiwgMjAxOC0wMy0xMSkiIHNvZGlwb2RpOmRvY25hbWU9ImJpenRhbGtfYWRhcHRlci5zdmciIHg9IjBweCIgeT0iMHB4IiB2aWV3Qm94PSIwIDAgNTMuODggNzIuNDciIHN0eWxlPSJlbmFibGUtYmFja2dyb3VuZDpuZXcgMCAwIDUzLjg4IDcyLjQ3OyIgeG1sOnNwYWNlPSJwcmVzZXJ2ZSI+JiN4YTs8c29kaXBvZGk6bmFtZWR2aWV3IGJvcmRlcmNvbG9yPSIjNjY2NjY2IiBib3JkZXJvcGFjaXR5PSIxIiBmaXQtbWFyZ2luLWJvdHRvbT0iMCIgZml0LW1hcmdpbi1sZWZ0PSIwIiBmaXQtbWFyZ2luLXJpZ2h0PSIwIiBmaXQtbWFyZ2luLXRvcD0iMCIgZ3JpZHRvbGVyYW5jZT0iMTAiIGd1aWRldG9sZXJhbmNlPSIxMCIgaWQ9Im5hbWVkdmlldzM1ODA4IiBpbmtzY2FwZTpjdXJyZW50LWxheWVyPSJzdmczNTgwNiIgaW5rc2NhcGU6Y3g9Ii0xMi41ODYzNjkiIGlua3NjYXBlOmN5PSIyOS4zOTE1MDEiIGlua3NjYXBlOnBhZ2VvcGFjaXR5PSIwIiBpbmtzY2FwZTpwYWdlc2hhZG93PSIyIiBpbmtzY2FwZTp3aW5kb3ctaGVpZ2h0PSIxMDE3IiBpbmtzY2FwZTp3aW5kb3ctbWF4aW1pemVkPSIxIiBpbmtzY2FwZTp3aW5kb3ctd2lkdGg9IjE5MjAiIGlua3NjYXBlOndpbmRvdy14PSItOCIgaW5rc2NhcGU6d2luZG93LXk9Ii04IiBpbmtzY2FwZTp6b29tPSI0LjM5NTQ1MzEiIG9iamVjdHRvbGVyYW5jZT0iMTAiIHBhZ2Vjb2xvcj0iI2ZmZmZmZiIgc2hvd2dyaWQ9ImZhbHNlIj4mI3hhOwk8L3NvZGlwb2RpOm5hbWVkdmlldz4mI3hhOzxnIGlkPSJnMzU4MDQiIHRyYW5zZm9ybT0idHJhbnNsYXRlKC0xLjUwMzg0MywtMC43NTAwMDAzKSI+JiN4YTsJPHRpdGxlIGlkPSJ0aXRsZTM1NzE1Ij5QYWdlLTE8L3RpdGxlPiYjeGE7CTxnIGlkPSJncm91cDM2NzMtMSIgdHJhbnNmb3JtPSJ0cmFuc2xhdGUoMS41LC0xLjUpIj4mI3hhOwkJPHRpdGxlIGlkPSJ0aXRsZTM1NzE3Ij5CaXpUYWxrIEFkYXB0ZXI8L3RpdGxlPiYjeGE7CQk8ZyBpZD0iZ3JvdXAzNjc0LTIiPiYjeGE7CQkJPHRpdGxlIGlkPSJ0aXRsZTM1NzE5Ij5nMTU2MDg8L3RpdGxlPiYjeGE7CQkJPGcgaWQ9InNoYXBlMzY3NS0zIiB0cmFuc2Zvcm09InJvdGF0ZSgtOTAsMTAuMTg1MzUsNTkuODQwNzUpIj4mI3hhOwkJCQk8dGl0bGUgaWQ9InRpdGxlMzU3MjEiPmxpbmUxNTU5ODwvdGl0bGU+JiN4YTsJCQkJJiN4YTsJCQkJCTxwYXRoIGlkPSJwYXRoMzU3MjMiIGlua3NjYXBlOmNvbm5lY3Rvci1jdXJ2YXR1cmU9IjAiIHN0eWxlPSJmaWxsOm5vbmU7c3Ryb2tlOiM1NTZBOEE7c3Ryb2tlLXdpZHRoOjEuNTtzdHJva2UtbWl0ZXJsaW1pdDozOyIgZD0iICAgICAgTTAsNzMuOTdoMjUuNjMiLz4mI3hhOwkJCTwvZz4mI3hhOwkJCTxnIGlkPSJzaGFwZTM2NzYtNiIgdHJhbnNmb3JtPSJyb3RhdGUoOTAsMjkuNTcwMjUsNzMuOTY4NzUpIj4mI3hhOwkJCQk8dGl0bGUgaWQ9InRpdGxlMzU3MjYiPmxpbmUxNTYwMDwvdGl0bGU+JiN4YTsJCQkJJiN4YTsJCQkJCTxwYXRoIGlkPSJwYXRoMzU3MjgiIGlua3NjYXBlOmNvbm5lY3Rvci1jdXJ2YXR1cmU9IjAiIHN0eWxlPSJmaWxsOm5vbmU7c3Ryb2tlOiM1NTZBOEE7c3Ryb2tlLXdpZHRoOjEuNTtzdHJva2UtbWl0ZXJsaW1pdDozOyIgZD0iICAgICAgTTAsNzMuOTdoMjMuNjYiLz4mI3hhOwkJCTwvZz4mI3hhOwkJCTxnIGlkPSJzaGFwZTM2NzctOSIgdHJhbnNmb3JtPSJyb3RhdGUoMTgwLDI2Ljk0MTg1LDcwLjAyNikiPiYjeGE7CQkJCTx0aXRsZSBpZD0idGl0bGUzNTczMSI+bGluZTE1NjAyPC90aXRsZT4mI3hhOwkJCQkmI3hhOwkJCQkJPHBhdGggaWQ9InBhdGgzNTczMyIgaW5rc2NhcGU6Y29ubmVjdG9yLWN1cnZhdHVyZT0iMCIgc3R5bGU9ImZpbGw6bm9uZTtzdHJva2U6IzU1NkE4QTtzdHJva2Utd2lkdGg6MS41O3N0cm9rZS1taXRlcmxpbWl0OjM7IiBkPSIgICAgICBNMCw3My45N2g1My44OCIvPiYjeGE7CQkJPC9nPiYjeGE7CQkJPGcgaWQ9InNoYXBlMzY3OC0xMiIgdHJhbnNmb3JtPSJyb3RhdGUoMTgwLDI2Ljk0MTg1LDcyLjY1NDUpIj4mI3hhOwkJCQk8dGl0bGUgaWQ9InRpdGxlMzU3MzYiPmxpbmUxNTYwNDwvdGl0bGU+JiN4YTsJCQkJJiN4YTsJCQkJCTxwYXRoIGlkPSJwYXRoMzU3MzgiIGlua3NjYXBlOmNvbm5lY3Rvci1jdXJ2YXR1cmU9IjAiIHN0eWxlPSJmaWxsOm5vbmU7c3Ryb2tlOiM1NTZBOEE7c3Ryb2tlLXdpZHRoOjEuNTtzdHJva2UtbWl0ZXJsaW1pdDozOyIgZD0iICAgICAgTTAsNzMuOTdoNTMuODgiLz4mI3hhOwkJCTwvZz4mI3hhOwkJCTxnIGlkPSJzaGFwZTM2NzktMTUiIHRyYW5zZm9ybT0idHJhbnNsYXRlKDE5LjA1NjQpIj4mI3hhOwkJCQk8dGl0bGUgaWQ9InRpdGxlMzU3NDEiPnJlY3QxNTYwNjwvdGl0bGU+JiN4YTsJCQkJJiN4YTsJCQkJCTxwYXRoIGlkPSJwYXRoMzU3NDMiIGlua3NjYXBlOmNvbm5lY3Rvci1jdXJ2YXR1cmU9IjAiIHN0eWxlPSJmaWxsOiM5MjczQjY7c3Ryb2tlOiM1NTZBOEE7c3Ryb2tlLXdpZHRoOjEuNTtzdHJva2UtbWl0ZXJsaW1pdDozOyIgZD0iICAgICAgTTAsNzEuMzRjMCwxLjQ1LDEuMTgsMi42MywyLjYzLDIuNjNjMCwwLDAsMCwwLDBoMTAuNTFjMS40NSwwLDIuNjMtMS4xOCwyLjYzLTIuNjNjMCwwLDAsMCwwLDB2LTUuMjYgICAgICBjMC0xLjQ1LTEuMTgtMi42My0yLjYzLTIuNjNjMCwwLDAsMCwwLDBIMi42M0MxLjE4LDYzLjQ1LDAsNjQuNjMsMCw2Ni4wOGMwLDAsMCwwLDAsMFY3MS4zNHoiLz4mI3hhOwkJCTwvZz4mI3hhOwkJPC9nPiYjeGE7CQk8ZyBpZD0iZ3JvdXAzNjgwLTE3IiB0cmFuc2Zvcm09InRyYW5zbGF0ZSgxMS4xNzEsLTE5LjA1NjQpIj4mI3hhOwkJCTx0aXRsZSBpZD0idGl0bGUzNTc0NyI+ZzE1NjMyLjI0NjczPC90aXRsZT4mI3hhOwkJCTxnIGlkPSJzaGFwZTM2ODEtMTgiPiYjeGE7CQkJCTx0aXRsZSBpZD0idGl0bGUzNTc0OSI+cmVjdDE1NjEwPC90aXRsZT4mI3hhOwkJCQkmI3hhOwkJCQkJPHJlY3QgaWQ9InJlY3QzNTc1MSIgeD0iMCIgeT0iMjIuMDYiIHN0eWxlPSJmaWxsOiNGRkZGRkY7c3Ryb2tlOiM1NTZBOEE7c3Ryb2tlLXdpZHRoOjEuNTtzdHJva2UtbWl0ZXJsaW1pdDozOyIgd2lkdGg9IjMwLjg4IiBoZWlnaHQ9IjUxLjkxIi8+JiN4YTsJCQk8L2c+JiN4YTsJCQk8ZyBpZD0iZ3JvdXAzNjgyLTIwIiB0cmFuc2Zvcm09InRyYW5zbGF0ZSgxLjMxNDI0LC0wLjY1NzExOSkiPiYjeGE7CQkJCTx0aXRsZSBpZD0idGl0bGUzNTc1NCI+ZzE1NjIyPC90aXRsZT4mI3hhOwkJCQk8ZyBpZD0ic2hhcGUzNjgzLTIxIiB0cmFuc2Zvcm09InRyYW5zbGF0ZSgxNS4xMTM3KSI+JiN4YTsJCQkJCTx0aXRsZSBpZD0idGl0bGUzNTc1NiI+cmVjdDE1NjEyPC90aXRsZT4mI3hhOwkJCQkJPHJlY3QgaWQ9InJlY3QzNTc1OCIgeD0iMCIgeT0iMjMuMzciIHN0eWxlPSJmaWxsOiNFNUU1RTU7IiB3aWR0aD0iMTMuOCIgaGVpZ2h0PSI1MC42Ii8+JiN4YTsJCQkJPC9nPiYjeGE7CQkJCTxnIGlkPSJzaGFwZTM2ODQtMjMiIHRyYW5zZm9ybT0idHJhbnNsYXRlKDAsLTQzLjM2OTgpIj4mI3hhOwkJCQkJPHRpdGxlIGlkPSJ0aXRsZTM1NzYxIj5wb2x5Z29uMTU2MTQ8L3RpdGxlPiYjeGE7CQkJCQk8cmVjdCBpZD0icmVjdDM1NzYzIiB4PSIwIiB5PSI3MiIgc3R5bGU9ImZpbGw6bm9uZTsiIHdpZHRoPSIyMy42NiIgaGVpZ2h0PSIxLjk3Ii8+JiN4YTsJCQkJPC9nPiYjeGE7CQkJCTxnIGlkPSJzaGFwZTM2ODUtMjUiIHRyYW5zZm9ybT0idHJhbnNsYXRlKDAsLTQzLjM2OTgpIj4mI3hhOwkJCQkJPHRpdGxlIGlkPSJ0aXRsZTM1NzY2Ij5wb2x5bGluZTE1NjE2PC90aXRsZT4mI3hhOwkJCQkJPHJlY3QgaWQ9InJlY3QzNTc2OCIgeD0iMCIgeT0iNzIiIHN0eWxlPSJmaWxsOm5vbmU7IiB3aWR0aD0iMjMuNjYiIGhlaWdodD0iMS45NyIvPiYjeGE7CQkJCTwvZz4mI3hhOwkJCQk8ZyBpZD0ic2hhcGUzNjg2LTI3IiB0cmFuc2Zvcm09InRyYW5zbGF0ZSgwLC00My4zNjk4KSI+JiN4YTsJCQkJCTx0aXRsZSBpZD0idGl0bGUzNTc3MSI+cmVjdDE1NjE4PC90aXRsZT4mI3hhOwkJCQkJPHJlY3QgaWQ9InJlY3QzNTc3MyIgeD0iMCIgeT0iNzIiIHN0eWxlPSJmaWxsOiMyQkM3RjQ7IiB3aWR0aD0iMTUuNzciIGhlaWdodD0iMS45NyIvPiYjeGE7CQkJCTwvZz4mI3hhOwkJCQk8ZyBpZD0ic2hhcGUzNjg3LTI5IiB0cmFuc2Zvcm09InRyYW5zbGF0ZSgxNS4xMTM3LC00My4zNjk4KSI+JiN4YTsJCQkJCTx0aXRsZSBpZD0idGl0bGUzNTc3NiI+cmVjdDE1NjIwPC90aXRsZT4mI3hhOwkJCQkJPHJlY3QgaWQ9InJlY3QzNTc3OCIgeD0iMCIgeT0iNzIiIHN0eWxlPSJmaWxsOiM1NTZBOEE7IiB3aWR0aD0iMTMuOCIgaGVpZ2h0PSIxLjk3Ii8+JiN4YTsJCQkJPC9nPiYjeGE7CQkJPC9nPiYjeGE7CQkJPGcgaWQ9InNoYXBlMzY4OC0zMSIgdHJhbnNmb3JtPSJ0cmFuc2xhdGUoMC42NTcxMTksLTQ0LjAyNykiPiYjeGE7CQkJCTx0aXRsZSBpZD0idGl0bGUzNTc4MiI+cmVjdDE1NjI0PC90aXRsZT4mI3hhOwkJCQk8cmVjdCBpZD0icmVjdDM1Nzg0IiB4PSIwIiB5PSI3MiIgc3R5bGU9ImZpbGw6IzU1NkE4QTsiIHdpZHRoPSIxLjk3IiBoZWlnaHQ9IjEuOTciLz4mI3hhOwkJCTwvZz4mI3hhOwkJCTxnIGlkPSJzaGFwZTM2ODktMzMiIHRyYW5zZm9ybT0idHJhbnNsYXRlKDEuMzE0MjQsLTM4Ljc3KSI+JiN4YTsJCQkJPHRpdGxlIGlkPSJ0aXRsZTM1Nzg3Ij5yZWN0MTU2MjY8L3RpdGxlPiYjeGE7CQkJCTxyZWN0IGlkPSJyZWN0MzU3ODkiIHg9IjAiIHk9IjcyIiBzdHlsZT0iZmlsbDojMkJDN0Y0OyIgd2lkdGg9IjE1Ljc3IiBoZWlnaHQ9IjEuOTciLz4mI3hhOwkJCTwvZz4mI3hhOwkJCTxnIGlkPSJzaGFwZTM2OTAtMzUiIHRyYW5zZm9ybT0idHJhbnNsYXRlKDE2LjQyOCwtMzguNzcpIj4mI3hhOwkJCQk8dGl0bGUgaWQ9InRpdGxlMzU3OTIiPnJlY3QxNTYyODwvdGl0bGU+JiN4YTsJCQkJPHJlY3QgaWQ9InJlY3QzNTc5NCIgeD0iMCIgeT0iNzIiIHN0eWxlPSJmaWxsOiM1NTZBOEE7IiB3aWR0aD0iMTMuOCIgaGVpZ2h0PSIxLjk3Ii8+JiN4YTsJCQk8L2c+JiN4YTsJCQk8ZyBpZD0ic2hhcGUzNjkxLTM3IiB0cmFuc2Zvcm09InRyYW5zbGF0ZSgwLjY1NzExOSwtMzguNzcpIj4mI3hhOwkJCQk8dGl0bGUgaWQ9InRpdGxlMzU3OTciPnJlY3QxNTYzMDwvdGl0bGU+JiN4YTsJCQkJPHJlY3QgaWQ9InJlY3QzNTc5OSIgeD0iMCIgeT0iNzIiIHN0eWxlPSJmaWxsOiM1NTZBOEE7IiB3aWR0aD0iMS45NyIgaGVpZ2h0PSIxLjk3Ii8+JiN4YTsJCQk8L2c+JiN4YTsJCTwvZz4mI3hhOwk8L2c+JiN4YTs8L2c+JiN4YTs8L3N2Zz4=;imageBackground=none;" vertex="1" parent="1">
          <mxGeometry x="555" y="60" width="54" height="72" as="geometry" />
        </mxCell>
        <mxCell id="5i07NRJmOnCf9pgSvCBg-37" value="MVM Node" style="shape=image;verticalLabelPosition=bottom;labelBackgroundColor=#ffffff;verticalAlign=top;aspect=fixed;imageAspect=0;image=data:image/svg+xml,PHN2ZyB4bWxuczpjYz0iaHR0cDovL2NyZWF0aXZlY29tbW9ucy5vcmcvbnMjIiB4bWxuczpkYz0iaHR0cDovL3B1cmwub3JnL2RjL2VsZW1lbnRzLzEuMS8iIHhtbG5zOmlua3NjYXBlPSJodHRwOi8vd3d3Lmlua3NjYXBlLm9yZy9uYW1lc3BhY2VzL2lua3NjYXBlIiB4bWxuczpyZGY9Imh0dHA6Ly93d3cudzMub3JnLzE5OTkvMDIvMjItcmRmLXN5bnRheC1ucyMiIHhtbG5zOnNvZGlwb2RpPSJodHRwOi8vc29kaXBvZGkuc291cmNlZm9yZ2UubmV0L0RURC9zb2RpcG9kaS0wLmR0ZCIgeG1sbnM6c3ZnPSJodHRwOi8vd3d3LnczLm9yZy8yMDAwL3N2ZyIgeG1sbnM9Imh0dHA6Ly93d3cudzMub3JnLzIwMDAvc3ZnIiB4bWxuczp4bGluaz0iaHR0cDovL3d3dy53My5vcmcvMTk5OS94bGluayIgdmVyc2lvbj0iMS4xIiBpZD0ic3ZnMzU4MDYiIGlua3NjYXBlOnZlcnNpb249IjAuOTIuMyAoMjQwNTU0NiwgMjAxOC0wMy0xMSkiIHNvZGlwb2RpOmRvY25hbWU9ImJpenRhbGtfYWRhcHRlci5zdmciIHg9IjBweCIgeT0iMHB4IiB2aWV3Qm94PSIwIDAgNTMuODggNzIuNDciIHN0eWxlPSJlbmFibGUtYmFja2dyb3VuZDpuZXcgMCAwIDUzLjg4IDcyLjQ3OyIgeG1sOnNwYWNlPSJwcmVzZXJ2ZSI+JiN4YTs8c29kaXBvZGk6bmFtZWR2aWV3IGJvcmRlcmNvbG9yPSIjNjY2NjY2IiBib3JkZXJvcGFjaXR5PSIxIiBmaXQtbWFyZ2luLWJvdHRvbT0iMCIgZml0LW1hcmdpbi1sZWZ0PSIwIiBmaXQtbWFyZ2luLXJpZ2h0PSIwIiBmaXQtbWFyZ2luLXRvcD0iMCIgZ3JpZHRvbGVyYW5jZT0iMTAiIGd1aWRldG9sZXJhbmNlPSIxMCIgaWQ9Im5hbWVkdmlldzM1ODA4IiBpbmtzY2FwZTpjdXJyZW50LWxheWVyPSJzdmczNTgwNiIgaW5rc2NhcGU6Y3g9Ii0xMi41ODYzNjkiIGlua3NjYXBlOmN5PSIyOS4zOTE1MDEiIGlua3NjYXBlOnBhZ2VvcGFjaXR5PSIwIiBpbmtzY2FwZTpwYWdlc2hhZG93PSIyIiBpbmtzY2FwZTp3aW5kb3ctaGVpZ2h0PSIxMDE3IiBpbmtzY2FwZTp3aW5kb3ctbWF4aW1pemVkPSIxIiBpbmtzY2FwZTp3aW5kb3ctd2lkdGg9IjE5MjAiIGlua3NjYXBlOndpbmRvdy14PSItOCIgaW5rc2NhcGU6d2luZG93LXk9Ii04IiBpbmtzY2FwZTp6b29tPSI0LjM5NTQ1MzEiIG9iamVjdHRvbGVyYW5jZT0iMTAiIHBhZ2Vjb2xvcj0iI2ZmZmZmZiIgc2hvd2dyaWQ9ImZhbHNlIj4mI3hhOwk8L3NvZGlwb2RpOm5hbWVkdmlldz4mI3hhOzxnIGlkPSJnMzU4MDQiIHRyYW5zZm9ybT0idHJhbnNsYXRlKC0xLjUwMzg0MywtMC43NTAwMDAzKSI+JiN4YTsJPHRpdGxlIGlkPSJ0aXRsZTM1NzE1Ij5QYWdlLTE8L3RpdGxlPiYjeGE7CTxnIGlkPSJncm91cDM2NzMtMSIgdHJhbnNmb3JtPSJ0cmFuc2xhdGUoMS41LC0xLjUpIj4mI3hhOwkJPHRpdGxlIGlkPSJ0aXRsZTM1NzE3Ij5CaXpUYWxrIEFkYXB0ZXI8L3RpdGxlPiYjeGE7CQk8ZyBpZD0iZ3JvdXAzNjc0LTIiPiYjeGE7CQkJPHRpdGxlIGlkPSJ0aXRsZTM1NzE5Ij5nMTU2MDg8L3RpdGxlPiYjeGE7CQkJPGcgaWQ9InNoYXBlMzY3NS0zIiB0cmFuc2Zvcm09InJvdGF0ZSgtOTAsMTAuMTg1MzUsNTkuODQwNzUpIj4mI3hhOwkJCQk8dGl0bGUgaWQ9InRpdGxlMzU3MjEiPmxpbmUxNTU5ODwvdGl0bGU+JiN4YTsJCQkJJiN4YTsJCQkJCTxwYXRoIGlkPSJwYXRoMzU3MjMiIGlua3NjYXBlOmNvbm5lY3Rvci1jdXJ2YXR1cmU9IjAiIHN0eWxlPSJmaWxsOm5vbmU7c3Ryb2tlOiM1NTZBOEE7c3Ryb2tlLXdpZHRoOjEuNTtzdHJva2UtbWl0ZXJsaW1pdDozOyIgZD0iICAgICAgTTAsNzMuOTdoMjUuNjMiLz4mI3hhOwkJCTwvZz4mI3hhOwkJCTxnIGlkPSJzaGFwZTM2NzYtNiIgdHJhbnNmb3JtPSJyb3RhdGUoOTAsMjkuNTcwMjUsNzMuOTY4NzUpIj4mI3hhOwkJCQk8dGl0bGUgaWQ9InRpdGxlMzU3MjYiPmxpbmUxNTYwMDwvdGl0bGU+JiN4YTsJCQkJJiN4YTsJCQkJCTxwYXRoIGlkPSJwYXRoMzU3MjgiIGlua3NjYXBlOmNvbm5lY3Rvci1jdXJ2YXR1cmU9IjAiIHN0eWxlPSJmaWxsOm5vbmU7c3Ryb2tlOiM1NTZBOEE7c3Ryb2tlLXdpZHRoOjEuNTtzdHJva2UtbWl0ZXJsaW1pdDozOyIgZD0iICAgICAgTTAsNzMuOTdoMjMuNjYiLz4mI3hhOwkJCTwvZz4mI3hhOwkJCTxnIGlkPSJzaGFwZTM2NzctOSIgdHJhbnNmb3JtPSJyb3RhdGUoMTgwLDI2Ljk0MTg1LDcwLjAyNikiPiYjeGE7CQkJCTx0aXRsZSBpZD0idGl0bGUzNTczMSI+bGluZTE1NjAyPC90aXRsZT4mI3hhOwkJCQkmI3hhOwkJCQkJPHBhdGggaWQ9InBhdGgzNTczMyIgaW5rc2NhcGU6Y29ubmVjdG9yLWN1cnZhdHVyZT0iMCIgc3R5bGU9ImZpbGw6bm9uZTtzdHJva2U6IzU1NkE4QTtzdHJva2Utd2lkdGg6MS41O3N0cm9rZS1taXRlcmxpbWl0OjM7IiBkPSIgICAgICBNMCw3My45N2g1My44OCIvPiYjeGE7CQkJPC9nPiYjeGE7CQkJPGcgaWQ9InNoYXBlMzY3OC0xMiIgdHJhbnNmb3JtPSJyb3RhdGUoMTgwLDI2Ljk0MTg1LDcyLjY1NDUpIj4mI3hhOwkJCQk8dGl0bGUgaWQ9InRpdGxlMzU3MzYiPmxpbmUxNTYwNDwvdGl0bGU+JiN4YTsJCQkJJiN4YTsJCQkJCTxwYXRoIGlkPSJwYXRoMzU3MzgiIGlua3NjYXBlOmNvbm5lY3Rvci1jdXJ2YXR1cmU9IjAiIHN0eWxlPSJmaWxsOm5vbmU7c3Ryb2tlOiM1NTZBOEE7c3Ryb2tlLXdpZHRoOjEuNTtzdHJva2UtbWl0ZXJsaW1pdDozOyIgZD0iICAgICAgTTAsNzMuOTdoNTMuODgiLz4mI3hhOwkJCTwvZz4mI3hhOwkJCTxnIGlkPSJzaGFwZTM2NzktMTUiIHRyYW5zZm9ybT0idHJhbnNsYXRlKDE5LjA1NjQpIj4mI3hhOwkJCQk8dGl0bGUgaWQ9InRpdGxlMzU3NDEiPnJlY3QxNTYwNjwvdGl0bGU+JiN4YTsJCQkJJiN4YTsJCQkJCTxwYXRoIGlkPSJwYXRoMzU3NDMiIGlua3NjYXBlOmNvbm5lY3Rvci1jdXJ2YXR1cmU9IjAiIHN0eWxlPSJmaWxsOiM5MjczQjY7c3Ryb2tlOiM1NTZBOEE7c3Ryb2tlLXdpZHRoOjEuNTtzdHJva2UtbWl0ZXJsaW1pdDozOyIgZD0iICAgICAgTTAsNzEuMzRjMCwxLjQ1LDEuMTgsMi42MywyLjYzLDIuNjNjMCwwLDAsMCwwLDBoMTAuNTFjMS40NSwwLDIuNjMtMS4xOCwyLjYzLTIuNjNjMCwwLDAsMCwwLDB2LTUuMjYgICAgICBjMC0xLjQ1LTEuMTgtMi42My0yLjYzLTIuNjNjMCwwLDAsMCwwLDBIMi42M0MxLjE4LDYzLjQ1LDAsNjQuNjMsMCw2Ni4wOGMwLDAsMCwwLDAsMFY3MS4zNHoiLz4mI3hhOwkJCTwvZz4mI3hhOwkJPC9nPiYjeGE7CQk8ZyBpZD0iZ3JvdXAzNjgwLTE3IiB0cmFuc2Zvcm09InRyYW5zbGF0ZSgxMS4xNzEsLTE5LjA1NjQpIj4mI3hhOwkJCTx0aXRsZSBpZD0idGl0bGUzNTc0NyI+ZzE1NjMyLjI0NjczPC90aXRsZT4mI3hhOwkJCTxnIGlkPSJzaGFwZTM2ODEtMTgiPiYjeGE7CQkJCTx0aXRsZSBpZD0idGl0bGUzNTc0OSI+cmVjdDE1NjEwPC90aXRsZT4mI3hhOwkJCQkmI3hhOwkJCQkJPHJlY3QgaWQ9InJlY3QzNTc1MSIgeD0iMCIgeT0iMjIuMDYiIHN0eWxlPSJmaWxsOiNGRkZGRkY7c3Ryb2tlOiM1NTZBOEE7c3Ryb2tlLXdpZHRoOjEuNTtzdHJva2UtbWl0ZXJsaW1pdDozOyIgd2lkdGg9IjMwLjg4IiBoZWlnaHQ9IjUxLjkxIi8+JiN4YTsJCQk8L2c+JiN4YTsJCQk8ZyBpZD0iZ3JvdXAzNjgyLTIwIiB0cmFuc2Zvcm09InRyYW5zbGF0ZSgxLjMxNDI0LC0wLjY1NzExOSkiPiYjeGE7CQkJCTx0aXRsZSBpZD0idGl0bGUzNTc1NCI+ZzE1NjIyPC90aXRsZT4mI3hhOwkJCQk8ZyBpZD0ic2hhcGUzNjgzLTIxIiB0cmFuc2Zvcm09InRyYW5zbGF0ZSgxNS4xMTM3KSI+JiN4YTsJCQkJCTx0aXRsZSBpZD0idGl0bGUzNTc1NiI+cmVjdDE1NjEyPC90aXRsZT4mI3hhOwkJCQkJPHJlY3QgaWQ9InJlY3QzNTc1OCIgeD0iMCIgeT0iMjMuMzciIHN0eWxlPSJmaWxsOiNFNUU1RTU7IiB3aWR0aD0iMTMuOCIgaGVpZ2h0PSI1MC42Ii8+JiN4YTsJCQkJPC9nPiYjeGE7CQkJCTxnIGlkPSJzaGFwZTM2ODQtMjMiIHRyYW5zZm9ybT0idHJhbnNsYXRlKDAsLTQzLjM2OTgpIj4mI3hhOwkJCQkJPHRpdGxlIGlkPSJ0aXRsZTM1NzYxIj5wb2x5Z29uMTU2MTQ8L3RpdGxlPiYjeGE7CQkJCQk8cmVjdCBpZD0icmVjdDM1NzYzIiB4PSIwIiB5PSI3MiIgc3R5bGU9ImZpbGw6bm9uZTsiIHdpZHRoPSIyMy42NiIgaGVpZ2h0PSIxLjk3Ii8+JiN4YTsJCQkJPC9nPiYjeGE7CQkJCTxnIGlkPSJzaGFwZTM2ODUtMjUiIHRyYW5zZm9ybT0idHJhbnNsYXRlKDAsLTQzLjM2OTgpIj4mI3hhOwkJCQkJPHRpdGxlIGlkPSJ0aXRsZTM1NzY2Ij5wb2x5bGluZTE1NjE2PC90aXRsZT4mI3hhOwkJCQkJPHJlY3QgaWQ9InJlY3QzNTc2OCIgeD0iMCIgeT0iNzIiIHN0eWxlPSJmaWxsOm5vbmU7IiB3aWR0aD0iMjMuNjYiIGhlaWdodD0iMS45NyIvPiYjeGE7CQkJCTwvZz4mI3hhOwkJCQk8ZyBpZD0ic2hhcGUzNjg2LTI3IiB0cmFuc2Zvcm09InRyYW5zbGF0ZSgwLC00My4zNjk4KSI+JiN4YTsJCQkJCTx0aXRsZSBpZD0idGl0bGUzNTc3MSI+cmVjdDE1NjE4PC90aXRsZT4mI3hhOwkJCQkJPHJlY3QgaWQ9InJlY3QzNTc3MyIgeD0iMCIgeT0iNzIiIHN0eWxlPSJmaWxsOiMyQkM3RjQ7IiB3aWR0aD0iMTUuNzciIGhlaWdodD0iMS45NyIvPiYjeGE7CQkJCTwvZz4mI3hhOwkJCQk8ZyBpZD0ic2hhcGUzNjg3LTI5IiB0cmFuc2Zvcm09InRyYW5zbGF0ZSgxNS4xMTM3LC00My4zNjk4KSI+JiN4YTsJCQkJCTx0aXRsZSBpZD0idGl0bGUzNTc3NiI+cmVjdDE1NjIwPC90aXRsZT4mI3hhOwkJCQkJPHJlY3QgaWQ9InJlY3QzNTc3OCIgeD0iMCIgeT0iNzIiIHN0eWxlPSJmaWxsOiM1NTZBOEE7IiB3aWR0aD0iMTMuOCIgaGVpZ2h0PSIxLjk3Ii8+JiN4YTsJCQkJPC9nPiYjeGE7CQkJPC9nPiYjeGE7CQkJPGcgaWQ9InNoYXBlMzY4OC0zMSIgdHJhbnNmb3JtPSJ0cmFuc2xhdGUoMC42NTcxMTksLTQ0LjAyNykiPiYjeGE7CQkJCTx0aXRsZSBpZD0idGl0bGUzNTc4MiI+cmVjdDE1NjI0PC90aXRsZT4mI3hhOwkJCQk8cmVjdCBpZD0icmVjdDM1Nzg0IiB4PSIwIiB5PSI3MiIgc3R5bGU9ImZpbGw6IzU1NkE4QTsiIHdpZHRoPSIxLjk3IiBoZWlnaHQ9IjEuOTciLz4mI3hhOwkJCTwvZz4mI3hhOwkJCTxnIGlkPSJzaGFwZTM2ODktMzMiIHRyYW5zZm9ybT0idHJhbnNsYXRlKDEuMzE0MjQsLTM4Ljc3KSI+JiN4YTsJCQkJPHRpdGxlIGlkPSJ0aXRsZTM1Nzg3Ij5yZWN0MTU2MjY8L3RpdGxlPiYjeGE7CQkJCTxyZWN0IGlkPSJyZWN0MzU3ODkiIHg9IjAiIHk9IjcyIiBzdHlsZT0iZmlsbDojMkJDN0Y0OyIgd2lkdGg9IjE1Ljc3IiBoZWlnaHQ9IjEuOTciLz4mI3hhOwkJCTwvZz4mI3hhOwkJCTxnIGlkPSJzaGFwZTM2OTAtMzUiIHRyYW5zZm9ybT0idHJhbnNsYXRlKDE2LjQyOCwtMzguNzcpIj4mI3hhOwkJCQk8dGl0bGUgaWQ9InRpdGxlMzU3OTIiPnJlY3QxNTYyODwvdGl0bGU+JiN4YTsJCQkJPHJlY3QgaWQ9InJlY3QzNTc5NCIgeD0iMCIgeT0iNzIiIHN0eWxlPSJmaWxsOiM1NTZBOEE7IiB3aWR0aD0iMTMuOCIgaGVpZ2h0PSIxLjk3Ii8+JiN4YTsJCQk8L2c+JiN4YTsJCQk8ZyBpZD0ic2hhcGUzNjkxLTM3IiB0cmFuc2Zvcm09InRyYW5zbGF0ZSgwLjY1NzExOSwtMzguNzcpIj4mI3hhOwkJCQk8dGl0bGUgaWQ9InRpdGxlMzU3OTciPnJlY3QxNTYzMDwvdGl0bGU+JiN4YTsJCQkJPHJlY3QgaWQ9InJlY3QzNTc5OSIgeD0iMCIgeT0iNzIiIHN0eWxlPSJmaWxsOiM1NTZBOEE7IiB3aWR0aD0iMS45NyIgaGVpZ2h0PSIxLjk3Ii8+JiN4YTsJCQk8L2c+JiN4YTsJCTwvZz4mI3hhOwk8L2c+JiN4YTs8L2c+JiN4YTs8L3N2Zz4=;imageBackground=none;" vertex="1" parent="1">
          <mxGeometry x="675" y="220" width="54" height="72" as="geometry" />
        </mxCell>
        <mxCell id="5i07NRJmOnCf9pgSvCBg-59" value="" style="endArrow=classic;startArrow=classic;html=1;rounded=0;entryX=0;entryY=0.5;entryDx=0;entryDy=0;exitX=1;exitY=0;exitDx=0;exitDy=0;" edge="1" parent="1" source="5i07NRJmOnCf9pgSvCBg-31" target="5i07NRJmOnCf9pgSvCBg-34">
          <mxGeometry width="50" height="50" relative="1" as="geometry">
            <mxPoint x="462" y="220" as="sourcePoint" />
            <mxPoint x="575" y="160" as="targetPoint" />
          </mxGeometry>
        </mxCell>
        <mxCell id="5i07NRJmOnCf9pgSvCBg-60" value="" style="endArrow=classic;startArrow=classic;html=1;rounded=0;entryX=0;entryY=0.5;entryDx=0;entryDy=0;exitX=0;exitY=0;exitDx=0;exitDy=0;" edge="1" parent="1" source="5i07NRJmOnCf9pgSvCBg-37">
          <mxGeometry width="50" height="50" relative="1" as="geometry">
            <mxPoint x="516" y="220" as="sourcePoint" />
            <mxPoint x="609" y="95.99999999999989" as="targetPoint" />
          </mxGeometry>
        </mxCell>
        <mxCell id="5i07NRJmOnCf9pgSvCBg-61" value="" style="endArrow=classic;startArrow=classic;html=1;rounded=0;entryX=0;entryY=0.5;entryDx=0;entryDy=0;" edge="1" parent="1" target="5i07NRJmOnCf9pgSvCBg-37">
          <mxGeometry width="50" height="50" relative="1" as="geometry">
            <mxPoint x="485" y="256" as="sourcePoint" />
            <mxPoint x="582" y="131.9999999999999" as="targetPoint" />
          </mxGeometry>
        </mxCell>
        <mxCell id="5i07NRJmOnCf9pgSvCBg-62" value="Mixin Group" style="shape=image;verticalLabelPosition=bottom;labelBackgroundColor=#ffffff;verticalAlign=top;aspect=fixed;imageAspect=0;image=data:image/svg+xml,PHN2ZyB4bWxuczpjYz0iaHR0cDovL2NyZWF0aXZlY29tbW9ucy5vcmcvbnMjIiB4bWxuczpkYz0iaHR0cDovL3B1cmwub3JnL2RjL2VsZW1lbnRzLzEuMS8iIHhtbG5zOmlua3NjYXBlPSJodHRwOi8vd3d3Lmlua3NjYXBlLm9yZy9uYW1lc3BhY2VzL2lua3NjYXBlIiB4bWxuczpyZGY9Imh0dHA6Ly93d3cudzMub3JnLzE5OTkvMDIvMjItcmRmLXN5bnRheC1ucyMiIHhtbG5zOnNvZGlwb2RpPSJodHRwOi8vc29kaXBvZGkuc291cmNlZm9yZ2UubmV0L0RURC9zb2RpcG9kaS0wLmR0ZCIgeG1sbnM6c3ZnPSJodHRwOi8vd3d3LnczLm9yZy8yMDAwL3N2ZyIgeG1sbnM9Imh0dHA6Ly93d3cudzMub3JnLzIwMDAvc3ZnIiB4bWxuczp4bGluaz0iaHR0cDovL3d3dy53My5vcmcvMTk5OS94bGluayIgdmVyc2lvbj0iMS4xIiBpZD0ic3ZnNjgyNiIgaW5rc2NhcGU6dmVyc2lvbj0iMC45Mi4zICgyNDA1NTQ2LCAyMDE4LTAzLTExKSIgc29kaXBvZGk6ZG9jbmFtZT0idmlydHVhbF93YW4uc3ZnIiB4PSIwcHgiIHk9IjBweCIgdmlld0JveD0iMCAwIDM1Ljg1IDM1Ljg2IiBzdHlsZT0iZW5hYmxlLWJhY2tncm91bmQ6bmV3IDAgMCAzNS44NSAzNS44NjsiIHhtbDpzcGFjZT0icHJlc2VydmUiPiYjeGE7PHNvZGlwb2RpOm5hbWVkdmlldyBib3JkZXJjb2xvcj0iIzY2NjY2NiIgYm9yZGVyb3BhY2l0eT0iMSIgZml0LW1hcmdpbi1ib3R0b209IjAiIGZpdC1tYXJnaW4tbGVmdD0iMCIgZml0LW1hcmdpbi1yaWdodD0iMCIgZml0LW1hcmdpbi10b3A9IjAiIGdyaWR0b2xlcmFuY2U9IjEwIiBndWlkZXRvbGVyYW5jZT0iMTAiIGlkPSJuYW1lZHZpZXc2ODI4IiBpbmtzY2FwZTpjdXJyZW50LWxheWVyPSJzdmc2ODI2IiBpbmtzY2FwZTpjeD0iMjMuOTAwMDAxIiBpbmtzY2FwZTpjeT0iMjMuOTAwMDAyIiBpbmtzY2FwZTpwYWdlb3BhY2l0eT0iMCIgaW5rc2NhcGU6cGFnZXNoYWRvdz0iMiIgaW5rc2NhcGU6d2luZG93LWhlaWdodD0iMTAxNyIgaW5rc2NhcGU6d2luZG93LW1heGltaXplZD0iMSIgaW5rc2NhcGU6d2luZG93LXdpZHRoPSIxOTIwIiBpbmtzY2FwZTp3aW5kb3cteD0iLTgiIGlua3NjYXBlOndpbmRvdy15PSItOCIgaW5rc2NhcGU6em9vbT0iMTcuNDA5NjM4IiBvYmplY3R0b2xlcmFuY2U9IjEwIiBwYWdlY29sb3I9IiNmZmZmZmYiIHNob3dncmlkPSJmYWxzZSI+JiN4YTsJPC9zb2RpcG9kaTpuYW1lZHZpZXc+JiN4YTs8ZyBpZD0iZzY4MjQiIHRyYW5zZm9ybT0idHJhbnNsYXRlKC0wLjc1LC0wLjc0NSkiPiYjeGE7CTx0aXRsZSBpZD0idGl0bGU2NzYzIj5QYWdlLTE8L3RpdGxlPiYjeGE7CTxnIGlkPSJncm91cDk0OTMtMSIgdHJhbnNmb3JtPSJ0cmFuc2xhdGUoMC43NSwtMC43NSkiPiYjeGE7CQk8dGl0bGUgaWQ9InRpdGxlNjc2NSI+VmlydHVhbCBXQU48L3RpdGxlPiYjeGE7CQk8ZyBpZD0ic2hhcGU5NDk0LTIiIHRyYW5zZm9ybT0idHJhbnNsYXRlKDAsLTEzLjQyNSkiPiYjeGE7CQkJPHRpdGxlIGlkPSJ0aXRsZTY3NjciPlNoZWV0Ljk0OTQ8L3RpdGxlPiYjeGE7CQkJPHBhdGggaWQ9InBhdGg2NzY5IiBpbmtzY2FwZTpjb25uZWN0b3ItY3VydmF0dXJlPSIwIiBzdHlsZT0iZmlsbDojNTlCNEQ5OyIgZD0iTTI4Ljg4LDIzLjdjLTAuMDEsMC0wLjAyLDAtMC4wMywwICAgICBjLTAuMjYtNC44OS00LjM3LTguNzgtOS40My04Ljc4Yy0zLjcsMC02Ljg5LDIuMDgtOC40NSw1LjExYy0wLjY0LTAuMTUtMS4zMi0wLjIzLTIuMDEtMC4yM0M0LjAxLDE5LjgsMCwyMy43MywwLDI4LjU3ICAgICBjMCw0Ljg1LDQuMDEsOC43OCw4Ljk2LDguNzhoMTkuOTJjMy44NSwwLDYuOTctMy4wNiw2Ljk3LTYuODNDMzUuODUsMjYuNzYsMzIuNzMsMjMuNywyOC44OCwyMy43eiIvPiYjeGE7CQk8L2c+JiN4YTsJCTxnIGlkPSJzaGFwZTk0OTUtNCIgdHJhbnNmb3JtPSJ0cmFuc2xhdGUoMCwtMTMuNDI1KSI+JiN4YTsJCQk8dGl0bGUgaWQ9InRpdGxlNjc3MiI+U2hlZXQuOTQ5NTwvdGl0bGU+JiN4YTsJCQk8cGF0aCBpZD0icGF0aDY3NzQiIGlua3NjYXBlOmNvbm5lY3Rvci1jdXJ2YXR1cmU9IjAiIHN0eWxlPSJmaWxsOiNGRkZGRkY7ZmlsbC1vcGFjaXR5OjAuMjsiIGQ9Ik0yOC44OCwyMy43ICAgICBjLTAuMDEsMC0wLjAyLDAtMC4wMywwYy0wLjI2LTQuODktNC4zNy04Ljc4LTkuNDMtOC43OGMtMy43LDAtNi44OSwyLjA4LTguNDUsNS4xMWMtMC42NC0wLjE1LTEuMzItMC4yMy0yLjAxLTAuMjMgICAgIEM0LjAxLDE5LjgsMCwyMy43MywwLDI4LjU3YzAsNC44NSw0LjAxLDguNzgsOC45Niw4Ljc4aDE5LjkyYzMuODUsMCw2Ljk3LTMuMDYsNi45Ny02LjgzQzM1Ljg1LDI2Ljc2LDMyLjczLDIzLjcsMjguODgsMjMuN3oiLz4mI3hhOwkJPC9nPiYjeGE7CQk8ZyBpZD0iZ3JvdXA5NDk2LTYiIHRyYW5zZm9ybT0idHJhbnNsYXRlKDYpIj4mI3hhOwkJCTx0aXRsZSBpZD0idGl0bGU2Nzc3Ij5TaGVldC45NDk2PC90aXRsZT4mI3hhOwkJCTxnIGlkPSJncm91cDk0OTctNyI+JiN4YTsJCQkJPHRpdGxlIGlkPSJ0aXRsZTY3NzkiPlNoZWV0Ljk0OTc8L3RpdGxlPiYjeGE7CQkJCTxnIGlkPSJzaGFwZTk0OTgtOCIgdHJhbnNmb3JtPSJ0cmFuc2xhdGUoMC41NjI1LC0wLjU2MjUpIj4mI3hhOwkJCQkJPHRpdGxlIGlkPSJ0aXRsZTY3ODEiPlNoZWV0Ljk0OTg8L3RpdGxlPiYjeGE7CQkJCQk8cGF0aCBpZD0icGF0aDY3ODMiIGlua3NjYXBlOmNvbm5lY3Rvci1jdXJ2YXR1cmU9IjAiIHN0eWxlPSJmaWxsOiNGRkZGRkY7IiBkPSJNMTIuMTEsMzcuMzVDNS40MywzNy4zNSwwLDMxLjkyLDAsMjUuMjQgICAgICAgczUuNDMtMTIuMTIsMTIuMTEtMTIuMTJzMTIuMTIsNS40NCwxMi4xMiwxMi4xMlMxOC43OSwzNy4zNSwxMi4xMSwzNy4zNXoiLz4mI3hhOwkJCQk8L2c+JiN4YTsJCQkJPGcgaWQ9InNoYXBlOTQ5OS0xMCI+JiN4YTsJCQkJCTx0aXRsZSBpZD0idGl0bGU2Nzg2Ij5TaGVldC45NDk5PC90aXRsZT4mI3hhOwkJCQkJPHBhdGggaWQ9InBhdGg2Nzg4IiBpbmtzY2FwZTpjb25uZWN0b3ItY3VydmF0dXJlPSIwIiBzdHlsZT0iZmlsbDojODA0OTk4OyIgZD0iTTEyLjY4LDEzLjEyYzYuMzYsMCwxMS41NSw1LjE5LDExLjU1LDExLjU1ICAgICAgIGMwLDYuMzctNS4xOSwxMS41NS0xMS41NSwxMS41NWMtNi4zNywwLTExLjU1LTUuMTgtMTEuNTUtMTEuNTVDMS4xMywxOC4zMSw2LjMxLDEzLjEyLDEyLjY4LDEzLjEyeiBNMTIuNjgsMTIgICAgICAgQzUuNjcsMTIsMCwxNy42NywwLDI0LjY3YzAsNy4wMSw1LjY3LDEyLjY4LDEyLjY4LDEyLjY4YzcsMCwxMi42Ny01LjY3LDEyLjY3LTEyLjY4QzI1LjM1LDE3LjY3LDE5LjY4LDEyLDEyLjY4LDEyeiIvPiYjeGE7CQkJCTwvZz4mI3hhOwkJCTwvZz4mI3hhOwkJCTxnIGlkPSJzaGFwZTk1MDAtMTIiIHRyYW5zZm9ybT0icm90YXRlKC03MC4wMDEyLC01LjU2MjE5NjUsMjEuNDYzNjM5KSI+JiN4YTsJCQkJPHRpdGxlIGlkPSJ0aXRsZTY3OTIiPlNoZWV0Ljk1MDA8L3RpdGxlPiYjeGE7CQkJCTxjaXJjbGUgaWQ9ImVsbGlwc2U2Nzk0IiBzdHlsZT0iZmlsbDojODA0OTk4OyIgY3g9IjIuMzkiIGN5PSIzNC45NiIgcj0iMi4zOSIvPiYjeGE7CQkJPC9nPiYjeGE7CQkJPGcgaWQ9InNoYXBlOTUwMS0xNCIgdHJhbnNmb3JtPSJyb3RhdGUoLTcwLjAwMTIsNC4zNTk2MzYsMTcuOTAyNjc0KSI+JiN4YTsJCQkJPHRpdGxlIGlkPSJ0aXRsZTY3OTciPlNoZWV0Ljk1MDE8L3RpdGxlPiYjeGE7CQkJCTxjaXJjbGUgaWQ9ImVsbGlwc2U2Nzk5IiBzdHlsZT0iZmlsbDojODA0OTk4OyIgY3g9IjIuMzkiIGN5PSIzNC45NiIgcj0iMi4zOSIvPiYjeGE7CQkJPC9nPiYjeGE7CQkJPGcgaWQ9InNoYXBlOTUwMi0xNiIgdHJhbnNmb3JtPSJyb3RhdGUoLTcwLjAwMTIsMS41MjA3MzQ4LDI4LjM1NTU5MSkiPiYjeGE7CQkJCTx0aXRsZSBpZD0idGl0bGU2ODAyIj5TaGVldC45NTAyPC90aXRsZT4mI3hhOwkJCQk8Y2lyY2xlIGlkPSJlbGxpcHNlNjgwNCIgc3R5bGU9ImZpbGw6IzgwNDk5ODsiIGN4PSIyLjM5IiBjeT0iMzQuOTYiIHI9IjIuMzkiLz4mI3hhOwkJCTwvZz4mI3hhOwkJCTxnIGlkPSJzaGFwZTk1MDMtMTgiIHRyYW5zZm9ybT0idHJhbnNsYXRlKDAuODE5NzUsLTEuNzY1NSkiPiYjeGE7CQkJCTx0aXRsZSBpZD0idGl0bGU2ODA3Ij5TaGVldC45NTAzPC90aXRsZT4mI3hhOwkJCQk8cGF0aCBpZD0icGF0aDY4MDkiIGlua3NjYXBlOmNvbm5lY3Rvci1jdXJ2YXR1cmU9IjAiIHN0eWxlPSJmaWxsOiM4MDQ5OTg7IiBkPSJNNi40NSwxOS4wN2MtMS45NiwwLTMuODUsMC40LTUuNjQsMS4yMSAgICAgIEMwLjUsMjAuODQsMC4yMywyMS40MSwwLDIyLjAyYzEuOTUtMS4xNyw0LjE3LTEuNzksNi40NS0xLjc5YzYuOTYsMCwxMi42Miw1LjY3LDEyLjYyLDEyLjYzYzAsMS41Mi0wLjI3LDMuMDEtMC44MSw0LjQzICAgICAgbC0wLjAyLDAuMDZjMC41My0wLjMyLDEuMDQtMC42NywxLjUyLTEuMDZjMC4yOC0xLjEsMC40Ny0yLjI5LDAuNDctMy40M0MyMC4yMywyNS4yNSwxNC4wNSwxOS4wNyw2LjQ1LDE5LjA3eiIvPiYjeGE7CQkJPC9nPiYjeGE7CQkJPGcgaWQ9InNoYXBlOTUwNC0yMCIgdHJhbnNmb3JtPSJ0cmFuc2xhdGUoNi44NDE1LC0wLjAxNDI1KSI+JiN4YTsJCQkJPHRpdGxlIGlkPSJ0aXRsZTY4MTIiPlNoZWV0Ljk1MDQ8L3RpdGxlPiYjeGE7CQkJCTxwYXRoIGlkPSJwYXRoNjgxNCIgaW5rc2NhcGU6Y29ubmVjdG9yLWN1cnZhdHVyZT0iMCIgc3R5bGU9ImZpbGw6IzgwNDk5ODsiIGQ9Ik0xMS4yOSwxMy4zOGMtMC41OS0wLjI4LTEuMi0wLjUyLTEuODQtMC43MiAgICAgIEMzLjc5LDE0LjU0LDAsMTkuNzYsMCwyNS43NWMwLDQuNzIsMi4zNyw5LjA1LDYuMzQsMTEuNmMwLjY3LTAuMDMsMS4zMi0wLjExLDEuOTYtMC4yNGwtMC4wNi0wLjAzICAgICAgYy00LjM2LTIuMTUtNy4wNy02LjQ5LTcuMDctMTEuMzNDMS4xNywxOS43NSw1LjQyLDE0LjU3LDExLjI5LDEzLjM4eiIvPiYjeGE7CQkJPC9nPiYjeGE7CQkJPGcgaWQ9InNoYXBlOTUwNS0yMiIgdHJhbnNmb3JtPSJ0cmFuc2xhdGUoNC41NDUsLTIuMTg1NSkiPiYjeGE7CQkJCTx0aXRsZSBpZD0idGl0bGU2ODE3Ij5TaGVldC45NTA1PC90aXRsZT4mI3hhOwkJCQk8cGF0aCBpZD0icGF0aDY4MTkiIGlua3NjYXBlOmNvbm5lY3Rvci1jdXJ2YXR1cmU9IjAiIHN0eWxlPSJmaWxsOiM4MDQ5OTg7IiBkPSJNMjAuMjcsMzAuMThjMC4xMS0wLjQxLDAuMi0wLjg0LDAuMjctMS4yOCAgICAgIGMtMi4xNi0xLjMtNC42Mi0xLjk5LTcuMTQtMS45OWMtNiwwLTExLjM4LDMuOC0xMy4zOSw5LjYyTDAsMzYuNTZsMC4wMywwLjAzYzAuMjcsMC4yMywwLjU2LDAuNDUsMC44NSwwLjY3ICAgICAgYzAuMDUsMC4wMywwLjA5LDAuMDYsMC4xMywwLjA5bDAuMDItMC4wN2MxLjc1LTUuNTMsNi43Mi05LjE0LDEyLjM3LTkuMTRDMTUuODUsMjguMTQsMTguMiwyOC44NSwyMC4yNywzMC4xOHoiLz4mI3hhOwkJCTwvZz4mI3hhOwkJPC9nPiYjeGE7CTwvZz4mI3hhOzwvZz4mI3hhOzwvc3ZnPg==;" vertex="1" parent="1">
          <mxGeometry x="549" y="157" width="66" height="66" as="geometry" />
        </mxCell>
        <mxCell id="5i07NRJmOnCf9pgSvCBg-64" value="" style="endArrow=classic;startArrow=classic;html=1;rounded=0;entryX=0;entryY=0.5;entryDx=0;entryDy=0;" edge="1" parent="1" target="5i07NRJmOnCf9pgSvCBg-5">
          <mxGeometry width="50" height="50" relative="1" as="geometry">
            <mxPoint x="450" y="690" as="sourcePoint" />
            <mxPoint x="520" y="565.9999999999999" as="targetPoint" />
          </mxGeometry>
        </mxCell>
        <mxCell id="5i07NRJmOnCf9pgSvCBg-65" value="" style="endArrow=classic;startArrow=classic;html=1;rounded=0;entryX=1;entryY=0.5;entryDx=0;entryDy=0;exitX=0;exitY=0;exitDx=0;exitDy=0;" edge="1" parent="1" source="5i07NRJmOnCf9pgSvCBg-10" target="5i07NRJmOnCf9pgSvCBg-5">
          <mxGeometry width="50" height="50" relative="1" as="geometry">
            <mxPoint x="460" y="700" as="sourcePoint" />
            <mxPoint x="570" y="616.5" as="targetPoint" />
          </mxGeometry>
        </mxCell>
        <mxCell id="5i07NRJmOnCf9pgSvCBg-66" value="" style="endArrow=classic;startArrow=classic;html=1;rounded=0;entryX=0;entryY=0.5;entryDx=0;entryDy=0;" edge="1" parent="1" target="5i07NRJmOnCf9pgSvCBg-1">
          <mxGeometry width="50" height="50" relative="1" as="geometry">
            <mxPoint x="430" y="790" as="sourcePoint" />
            <mxPoint x="570" y="616.5" as="targetPoint" />
          </mxGeometry>
        </mxCell>
        <mxCell id="5i07NRJmOnCf9pgSvCBg-68" value="" style="endArrow=classic;startArrow=classic;html=1;rounded=0;entryX=1;entryY=0.5;entryDx=0;entryDy=0;" edge="1" parent="1" target="5i07NRJmOnCf9pgSvCBg-24">
          <mxGeometry width="50" height="50" relative="1" as="geometry">
            <mxPoint x="750" y="790" as="sourcePoint" />
            <mxPoint x="780" y="886" as="targetPoint" />
          </mxGeometry>
        </mxCell>
        <mxCell id="5i07NRJmOnCf9pgSvCBg-69" value="" style="endArrow=classic;startArrow=classic;html=1;rounded=0;entryX=1;entryY=0.5;entryDx=0;entryDy=0;exitX=0;exitY=0.5;exitDx=0;exitDy=0;" edge="1" parent="1" source="5i07NRJmOnCf9pgSvCBg-24" target="5i07NRJmOnCf9pgSvCBg-1">
          <mxGeometry width="50" height="50" relative="1" as="geometry">
            <mxPoint x="440" y="800" as="sourcePoint" />
            <mxPoint x="480" y="896" as="targetPoint" />
          </mxGeometry>
        </mxCell>
        <mxCell id="5i07NRJmOnCf9pgSvCBg-70" value="" style="endArrow=classic;startArrow=classic;html=1;rounded=0;exitX=0.5;exitY=0;exitDx=0;exitDy=0;" edge="1" parent="1" source="5i07NRJmOnCf9pgSvCBg-24">
          <mxGeometry width="50" height="50" relative="1" as="geometry">
            <mxPoint x="650" y="896" as="sourcePoint" />
            <mxPoint x="600" y="670" as="targetPoint" />
          </mxGeometry>
        </mxCell>
        <mxCell id="5i07NRJmOnCf9pgSvCBg-71" value="" style="endArrow=classic;startArrow=classic;html=1;rounded=0;" edge="1" parent="1">
          <mxGeometry width="50" height="50" relative="1" as="geometry">
            <mxPoint x="500" y="840" as="sourcePoint" />
            <mxPoint x="574" y="670" as="targetPoint" />
          </mxGeometry>
        </mxCell>
        <mxCell id="5i07NRJmOnCf9pgSvCBg-72" value="" style="endArrow=classic;startArrow=classic;html=1;rounded=0;exitX=1;exitY=0.5;exitDx=0;exitDy=0;entryX=0;entryY=0.5;entryDx=0;entryDy=0;" edge="1" parent="1" source="5i07NRJmOnCf9pgSvCBg-2" target="5i07NRJmOnCf9pgSvCBg-10">
          <mxGeometry width="50" height="50" relative="1" as="geometry">
            <mxPoint x="460" y="730" as="sourcePoint" />
            <mxPoint x="504" y="530" as="targetPoint" />
          </mxGeometry>
        </mxCell>
        <mxCell id="5i07NRJmOnCf9pgSvCBg-73" value="" style="endArrow=classic;startArrow=classic;html=1;rounded=0;exitX=1;exitY=0.75;exitDx=0;exitDy=0;entryX=0;entryY=0;entryDx=0;entryDy=0;" edge="1" parent="1" source="5i07NRJmOnCf9pgSvCBg-2" target="5i07NRJmOnCf9pgSvCBg-24">
          <mxGeometry width="50" height="50" relative="1" as="geometry">
            <mxPoint x="464" y="736" as="sourcePoint" />
            <mxPoint x="730" y="736" as="targetPoint" />
          </mxGeometry>
        </mxCell>
        <mxCell id="5i07NRJmOnCf9pgSvCBg-74" value="" style="endArrow=classic;startArrow=classic;html=1;rounded=0;exitX=0;exitY=0.75;exitDx=0;exitDy=0;entryX=1;entryY=0;entryDx=0;entryDy=0;" edge="1" parent="1" source="5i07NRJmOnCf9pgSvCBg-10" target="5i07NRJmOnCf9pgSvCBg-1">
          <mxGeometry width="50" height="50" relative="1" as="geometry">
            <mxPoint x="464" y="754" as="sourcePoint" />
            <mxPoint x="650" y="860" as="targetPoint" />
          </mxGeometry>
        </mxCell>
      </root>
    </mxGraphModel>
  </diagram>
</mxfile>
